<svg width="60" height="24" viewBox="0 0 60 24" fill="none" xmlns="http://www.w3.org/2000/svg">
<rect width="60" height="24" rx="6" fill="#FFF5CC"/>
<path d="M5.86738 16L8.44738 9H9.33738L11.9074 16H11.0174L10.3774 14.2H7.39738L6.74738 16H5.86738ZM7.64738 13.52H10.1274L8.88738 10.06L7.64738 13.52ZM12.898 16V8.8H13.738V16H12.898ZM17.3448 16.12C16.8715 16.12 16.4515 16.0133 16.0848 15.8C15.7181 15.58 15.4281 15.2767 15.2148 14.89C15.0081 14.5033 14.9048 14.0467 14.9048 13.52C14.9048 13 15.0081 12.5467 15.2148 12.16C15.4215 11.7667 15.7081 11.4633 16.0748 11.25C16.4481 11.03 16.8781 10.92 17.3648 10.92C17.8448 10.92 18.2581 11.03 18.6048 11.25C18.9581 11.4633 19.2281 11.7467 19.4148 12.1C19.6015 12.4533 19.6948 12.8333 19.6948 13.24C19.6948 13.3133 19.6915 13.3867 19.6848 13.46C19.6848 13.5333 19.6848 13.6167 19.6848 13.71H15.7348C15.7548 14.09 15.8415 14.4067 15.9948 14.66C16.1548 14.9067 16.3515 15.0933 16.5848 15.22C16.8248 15.3467 17.0781 15.41 17.3448 15.41C17.6915 15.41 17.9815 15.33 18.2148 15.17C18.4481 15.01 18.6181 14.7933 18.7248 14.52H19.5548C19.4215 14.98 19.1648 15.3633 18.7848 15.67C18.4115 15.97 17.9315 16.12 17.3448 16.12ZM17.3448 11.63C16.9448 11.63 16.5881 11.7533 16.2748 12C15.9681 12.24 15.7915 12.5933 15.7448 13.06H18.8648C18.8448 12.6133 18.6915 12.2633 18.4048 12.01C18.1181 11.7567 17.7648 11.63 17.3448 11.63ZM20.0738 16L21.7938 13.52L20.0738 11.04H20.9838L22.3738 13.09L23.7738 11.04H24.6738L22.9538 13.52L24.6738 16H23.7738L22.3738 13.95L20.9838 16H20.0738ZM27.175 16.12C26.7616 16.12 26.4183 16.05 26.145 15.91C25.8716 15.77 25.6683 15.5833 25.535 15.35C25.4016 15.1167 25.335 14.8633 25.335 14.59C25.335 14.0833 25.5283 13.6933 25.915 13.42C26.3016 13.1467 26.8283 13.01 27.495 13.01H28.835V12.95C28.835 12.5167 28.7216 12.19 28.495 11.97C28.2683 11.7433 27.965 11.63 27.585 11.63C27.2583 11.63 26.975 11.7133 26.735 11.88C26.5016 12.04 26.355 12.2767 26.295 12.59H25.435C25.4683 12.23 25.5883 11.9267 25.795 11.68C26.0083 11.4333 26.2716 11.2467 26.585 11.12C26.8983 10.9867 27.2316 10.92 27.585 10.92C28.2783 10.92 28.7983 11.1067 29.145 11.48C29.4983 11.8467 29.675 12.3367 29.675 12.95V16H28.925L28.875 15.11C28.735 15.39 28.5283 15.63 28.255 15.83C27.9883 16.0233 27.6283 16.12 27.175 16.12ZM27.305 15.41C27.625 15.41 27.8983 15.3267 28.125 15.16C28.3583 14.9933 28.535 14.7767 28.655 14.51C28.775 14.2433 28.835 13.9633 28.835 13.67V13.66H27.565C27.0716 13.66 26.7216 13.7467 26.515 13.92C26.315 14.0867 26.215 14.2967 26.215 14.55C26.215 14.81 26.3083 15.02 26.495 15.18C26.6883 15.3333 26.9583 15.41 27.305 15.41ZM30.9351 16V11.04H31.6951L31.7451 11.93C31.9051 11.6167 32.1351 11.37 32.4351 11.19C32.7351 11.01 33.0751 10.92 33.4551 10.92C34.0418 10.92 34.5085 11.1 34.8551 11.46C35.2085 11.8133 35.3851 12.36 35.3851 13.1V16H34.5451V13.19C34.5451 12.1567 34.1185 11.64 33.2651 11.64C32.8385 11.64 32.4818 11.7967 32.1951 12.11C31.9151 12.4167 31.7751 12.8567 31.7751 13.43V16H30.9351ZM38.9078 16.12C38.4144 16.12 37.9811 16.0067 37.6078 15.78C37.2411 15.5533 36.9544 15.2433 36.7478 14.85C36.5478 14.4567 36.4478 14.01 36.4478 13.51C36.4478 13.01 36.5511 12.5667 36.7578 12.18C36.9644 11.7867 37.2511 11.48 37.6178 11.26C37.9844 11.0333 38.4178 10.92 38.9178 10.92C39.3244 10.92 39.6844 11.0033 39.9978 11.17C40.3111 11.3367 40.5544 11.57 40.7278 11.87V8.8H41.5678V16H40.8078L40.7278 15.18C40.5678 15.42 40.3378 15.6367 40.0378 15.83C39.7378 16.0233 39.3611 16.12 38.9078 16.12ZM38.9978 15.39C39.3311 15.39 39.6244 15.3133 39.8778 15.16C40.1378 15 40.3378 14.78 40.4778 14.5C40.6244 14.22 40.6978 13.8933 40.6978 13.52C40.6978 13.1467 40.6244 12.82 40.4778 12.54C40.3378 12.26 40.1378 12.0433 39.8778 11.89C39.6244 11.73 39.3311 11.65 38.9978 11.65C38.6711 11.65 38.3778 11.73 38.1178 11.89C37.8644 12.0433 37.6644 12.26 37.5178 12.54C37.3778 12.82 37.3078 13.1467 37.3078 13.52C37.3078 13.8933 37.3778 14.22 37.5178 14.5C37.6644 14.78 37.8644 15 38.1178 15.16C38.3778 15.3133 38.6711 15.39 38.9978 15.39ZM42.9371 16V11.04H43.6971L43.7671 11.99C43.9204 11.6633 44.1537 11.4033 44.4671 11.21C44.7804 11.0167 45.1671 10.92 45.6271 10.92V11.8H45.3971C45.1037 11.8 44.8337 11.8533 44.5871 11.96C44.3404 12.06 44.1437 12.2333 43.9971 12.48C43.8504 12.7267 43.7771 13.0667 43.7771 13.5V16H42.9371ZM47.0799 9.94C46.9132 9.94 46.7732 9.88667 46.6599 9.78C46.5532 9.66667 46.4999 9.52667 46.4999 9.36C46.4999 9.2 46.5532 9.06667 46.6599 8.96C46.7732 8.85333 46.9132 8.8 47.0799 8.8C47.2399 8.8 47.3765 8.85333 47.4899 8.96C47.6032 9.06667 47.6599 9.2 47.6599 9.36C47.6599 9.52667 47.6032 9.66667 47.4899 9.78C47.3765 9.88667 47.2399 9.94 47.0799 9.94ZM46.6599 16V11.04H47.4999V16H46.6599ZM50.6125 16.12C50.1991 16.12 49.8558 16.05 49.5825 15.91C49.3091 15.77 49.1058 15.5833 48.9725 15.35C48.8391 15.1167 48.7725 14.8633 48.7725 14.59C48.7725 14.0833 48.9658 13.6933 49.3525 13.42C49.7391 13.1467 50.2658 13.01 50.9325 13.01H52.2725V12.95C52.2725 12.5167 52.1591 12.19 51.9325 11.97C51.7058 11.7433 51.4025 11.63 51.0225 11.63C50.6958 11.63 50.4125 11.7133 50.1725 11.88C49.9391 12.04 49.7925 12.2767 49.7325 12.59H48.8725C48.9058 12.23 49.0258 11.9267 49.2325 11.68C49.4458 11.4333 49.7091 11.2467 50.0225 11.12C50.3358 10.9867 50.6691 10.92 51.0225 10.92C51.7158 10.92 52.2358 11.1067 52.5825 11.48C52.9358 11.8467 53.1125 12.3367 53.1125 12.95V16H52.3625L52.3125 15.11C52.1725 15.39 51.9658 15.63 51.6925 15.83C51.4258 16.0233 51.0658 16.12 50.6125 16.12ZM50.7425 15.41C51.0625 15.41 51.3358 15.3267 51.5625 15.16C51.7958 14.9933 51.9725 14.7767 52.0925 14.51C52.2125 14.2433 52.2725 13.9633 52.2725 13.67V13.66H51.0025C50.5091 13.66 50.1591 13.7467 49.9525 13.92C49.7525 14.0867 49.6525 14.2967 49.6525 14.55C49.6525 14.81 49.7458 15.02 49.9325 15.18C50.1258 15.3333 50.3958 15.41 50.7425 15.41Z" fill="black"/>
</svg>
