<svg width="60" height="24" viewBox="0 0 60 24" fill="none" xmlns="http://www.w3.org/2000/svg">
<rect width="60" height="24" rx="6" fill="#FFE5D3"/>
<path d="M9.88453 16V9H12.3445C12.8379 9 13.2445 9.08 13.5645 9.24C13.8912 9.39333 14.1345 9.60667 14.2945 9.88C14.4545 10.1467 14.5345 10.4467 14.5345 10.78C14.5345 11.2333 14.4112 11.59 14.1645 11.85C13.9245 12.11 13.6345 12.29 13.2945 12.39C13.5545 12.4367 13.7912 12.54 14.0045 12.7C14.2179 12.86 14.3845 13.06 14.5045 13.3C14.6312 13.54 14.6945 13.8033 14.6945 14.09C14.6945 14.4433 14.6079 14.7667 14.4345 15.06C14.2612 15.3467 14.0045 15.5767 13.6645 15.75C13.3245 15.9167 12.9112 16 12.4245 16H9.88453ZM10.7245 12.06H12.2845C12.7312 12.06 13.0745 11.9567 13.3145 11.75C13.5545 11.5367 13.6745 11.2433 13.6745 10.87C13.6745 10.5167 13.5545 10.2333 13.3145 10.02C13.0812 9.80667 12.7279 9.7 12.2545 9.7H10.7245V12.06ZM10.7245 15.3H12.3345C12.8145 15.3 13.1845 15.19 13.4445 14.97C13.7045 14.7433 13.8345 14.43 13.8345 14.03C13.8345 13.6367 13.6979 13.3233 13.4245 13.09C13.1512 12.85 12.7812 12.73 12.3145 12.73H10.7245V15.3ZM18.0802 16.12C17.6068 16.12 17.1868 16.0133 16.8202 15.8C16.4535 15.58 16.1635 15.2767 15.9502 14.89C15.7435 14.5033 15.6402 14.0467 15.6402 13.52C15.6402 13 15.7435 12.5467 15.9502 12.16C16.1568 11.7667 16.4435 11.4633 16.8102 11.25C17.1835 11.03 17.6135 10.92 18.1002 10.92C18.5802 10.92 18.9935 11.03 19.3402 11.25C19.6935 11.4633 19.9635 11.7467 20.1502 12.1C20.3368 12.4533 20.4302 12.8333 20.4302 13.24C20.4302 13.3133 20.4268 13.3867 20.4202 13.46C20.4202 13.5333 20.4202 13.6167 20.4202 13.71H16.4702C16.4902 14.09 16.5768 14.4067 16.7302 14.66C16.8902 14.9067 17.0868 15.0933 17.3202 15.22C17.5602 15.3467 17.8135 15.41 18.0802 15.41C18.4268 15.41 18.7168 15.33 18.9502 15.17C19.1835 15.01 19.3535 14.7933 19.4602 14.52H20.2902C20.1568 14.98 19.9002 15.3633 19.5202 15.67C19.1468 15.97 18.6668 16.12 18.0802 16.12ZM18.0802 11.63C17.6802 11.63 17.3235 11.7533 17.0102 12C16.7035 12.24 16.5268 12.5933 16.4802 13.06H19.6002C19.5802 12.6133 19.4268 12.2633 19.1402 12.01C18.8535 11.7567 18.5002 11.63 18.0802 11.63ZM21.5435 16V8.8H22.3835V11.89C22.5502 11.5833 22.7868 11.3467 23.0935 11.18C23.4002 11.0067 23.7335 10.92 24.0935 10.92C24.6668 10.92 25.1268 11.1 25.4735 11.46C25.8202 11.8133 25.9935 12.36 25.9935 13.1V16H25.1635V13.19C25.1635 12.1567 24.7468 11.64 23.9135 11.64C23.4802 11.64 23.1168 11.7967 22.8235 12.11C22.5302 12.4167 22.3835 12.8567 22.3835 13.43V16H21.5435ZM28.9162 16.12C28.5028 16.12 28.1595 16.05 27.8862 15.91C27.6128 15.77 27.4095 15.5833 27.2762 15.35C27.1428 15.1167 27.0762 14.8633 27.0762 14.59C27.0762 14.0833 27.2695 13.6933 27.6562 13.42C28.0428 13.1467 28.5695 13.01 29.2362 13.01H30.5762V12.95C30.5762 12.5167 30.4628 12.19 30.2362 11.97C30.0095 11.7433 29.7062 11.63 29.3262 11.63C28.9995 11.63 28.7162 11.7133 28.4762 11.88C28.2428 12.04 28.0962 12.2767 28.0362 12.59H27.1762C27.2095 12.23 27.3295 11.9267 27.5362 11.68C27.7495 11.4333 28.0128 11.2467 28.3262 11.12C28.6395 10.9867 28.9728 10.92 29.3262 10.92C30.0195 10.92 30.5395 11.1067 30.8862 11.48C31.2395 11.8467 31.4162 12.3367 31.4162 12.95V16H30.6662L30.6162 15.11C30.4762 15.39 30.2695 15.63 29.9962 15.83C29.7295 16.0233 29.3695 16.12 28.9162 16.12ZM29.0462 15.41C29.3662 15.41 29.6395 15.3267 29.8662 15.16C30.0995 14.9933 30.2762 14.7767 30.3962 14.51C30.5162 14.2433 30.5762 13.9633 30.5762 13.67V13.66H29.3062C28.8128 13.66 28.4628 13.7467 28.2562 13.92C28.0562 14.0867 27.9562 14.2967 27.9562 14.55C27.9562 14.81 28.0495 15.02 28.2362 15.18C28.4295 15.3333 28.6995 15.41 29.0462 15.41ZM32.6763 16V11.04H33.4363L33.4863 11.93C33.6463 11.6167 33.8763 11.37 34.1763 11.19C34.4763 11.01 34.8163 10.92 35.1963 10.92C35.783 10.92 36.2497 11.1 36.5963 11.46C36.9497 11.8133 37.1263 12.36 37.1263 13.1V16H36.2863V13.19C36.2863 12.1567 35.8597 11.64 35.0063 11.64C34.5797 11.64 34.223 11.7967 33.9363 12.11C33.6563 12.4167 33.5163 12.8567 33.5163 13.43V16H32.6763ZM40.679 16.12C40.2057 16.12 39.779 16.0133 39.399 15.8C39.0257 15.58 38.729 15.2767 38.509 14.89C38.2957 14.4967 38.189 14.04 38.189 13.52C38.189 13 38.2957 12.5467 38.509 12.16C38.729 11.7667 39.0257 11.4633 39.399 11.25C39.779 11.03 40.2057 10.92 40.679 10.92C41.2657 10.92 41.759 11.0733 42.159 11.38C42.5657 11.6867 42.8223 12.0967 42.929 12.61H42.069C42.0023 12.3033 41.839 12.0667 41.579 11.9C41.319 11.7267 41.0157 11.64 40.669 11.64C40.389 11.64 40.1257 11.71 39.879 11.85C39.6323 11.99 39.4323 12.2 39.279 12.48C39.1257 12.76 39.049 13.1067 39.049 13.52C39.049 13.9333 39.1257 14.28 39.279 14.56C39.4323 14.84 39.6323 15.0533 39.879 15.2C40.1257 15.34 40.389 15.41 40.669 15.41C41.0157 15.41 41.319 15.3267 41.579 15.16C41.839 14.9867 42.0023 14.7433 42.069 14.43H42.929C42.829 14.93 42.5757 15.3367 42.169 15.65C41.7623 15.9633 41.2657 16.12 40.679 16.12ZM46.3321 16.12C45.8588 16.12 45.4388 16.0133 45.0721 15.8C44.7054 15.58 44.4154 15.2767 44.2021 14.89C43.9954 14.5033 43.8921 14.0467 43.8921 13.52C43.8921 13 43.9954 12.5467 44.2021 12.16C44.4088 11.7667 44.6954 11.4633 45.0621 11.25C45.4354 11.03 45.8654 10.92 46.3521 10.92C46.8321 10.92 47.2454 11.03 47.5921 11.25C47.9454 11.4633 48.2154 11.7467 48.4021 12.1C48.5888 12.4533 48.6821 12.8333 48.6821 13.24C48.6821 13.3133 48.6788 13.3867 48.6721 13.46C48.6721 13.5333 48.6721 13.6167 48.6721 13.71H44.7221C44.7421 14.09 44.8288 14.4067 44.9821 14.66C45.1421 14.9067 45.3388 15.0933 45.5721 15.22C45.8121 15.3467 46.0654 15.41 46.3321 15.41C46.6788 15.41 46.9688 15.33 47.2021 15.17C47.4354 15.01 47.6054 14.7933 47.7121 14.52H48.5421C48.4088 14.98 48.1521 15.3633 47.7721 15.67C47.3988 15.97 46.9188 16.12 46.3321 16.12ZM46.3321 11.63C45.9321 11.63 45.5754 11.7533 45.2621 12C44.9554 12.24 44.7788 12.5933 44.7321 13.06H47.8521C47.8321 12.6133 47.6788 12.2633 47.3921 12.01C47.1054 11.7567 46.7521 11.63 46.3321 11.63Z" fill="black"/>
</svg>
