<svg width="50" height="24" viewBox="0 0 50 24" fill="none" xmlns="http://www.w3.org/2000/svg">
<rect width="50" height="24" rx="6" fill="#CCF8FE"/>
<path d="M5.44801 16V9H7.90801C8.40134 9 8.80801 9.08 9.12801 9.24C9.45467 9.39333 9.69801 9.60667 9.85801 9.88C10.018 10.1467 10.098 10.4467 10.098 10.78C10.098 11.2333 9.97467 11.59 9.72801 11.85C9.48801 12.11 9.19801 12.29 8.85801 12.39C9.11801 12.4367 9.35467 12.54 9.56801 12.7C9.78134 12.86 9.94801 13.06 10.068 13.3C10.1947 13.54 10.258 13.8033 10.258 14.09C10.258 14.4433 10.1713 14.7667 9.99801 15.06C9.82467 15.3467 9.56801 15.5767 9.22801 15.75C8.88801 15.9167 8.47467 16 7.98801 16H5.44801ZM6.28801 12.06H7.84801C8.29467 12.06 8.63801 11.9567 8.87801 11.75C9.11801 11.5367 9.23801 11.2433 9.23801 10.87C9.23801 10.5167 9.11801 10.2333 8.87801 10.02C8.64467 9.80667 8.29134 9.7 7.81801 9.7H6.28801V12.06ZM6.28801 15.3H7.89801C8.37801 15.3 8.74801 15.19 9.00801 14.97C9.26801 14.7433 9.39801 14.43 9.39801 14.03C9.39801 13.6367 9.26134 13.3233 8.98801 13.09C8.71467 12.85 8.34467 12.73 7.87801 12.73H6.28801V15.3ZM13.6436 16.12C13.1703 16.12 12.7503 16.0133 12.3836 15.8C12.017 15.58 11.727 15.2767 11.5136 14.89C11.307 14.5033 11.2036 14.0467 11.2036 13.52C11.2036 13 11.307 12.5467 11.5136 12.16C11.7203 11.7667 12.007 11.4633 12.3736 11.25C12.747 11.03 13.177 10.92 13.6636 10.92C14.1436 10.92 14.557 11.03 14.9036 11.25C15.257 11.4633 15.527 11.7467 15.7136 12.1C15.9003 12.4533 15.9936 12.8333 15.9936 13.24C15.9936 13.3133 15.9903 13.3867 15.9836 13.46C15.9836 13.5333 15.9836 13.6167 15.9836 13.71H12.0336C12.0536 14.09 12.1403 14.4067 12.2936 14.66C12.4536 14.9067 12.6503 15.0933 12.8836 15.22C13.1236 15.3467 13.377 15.41 13.6436 15.41C13.9903 15.41 14.2803 15.33 14.5136 15.17C14.747 15.01 14.917 14.7933 15.0236 14.52H15.8536C15.7203 14.98 15.4636 15.3633 15.0836 15.67C14.7103 15.97 14.2303 16.12 13.6436 16.12ZM13.6436 11.63C13.2436 11.63 12.887 11.7533 12.5736 12C12.267 12.24 12.0903 12.5933 12.0436 13.06H15.1636C15.1436 12.6133 14.9903 12.2633 14.7036 12.01C14.417 11.7567 14.0636 11.63 13.6436 11.63ZM17.107 16V8.8H17.947V16H17.107ZM21.2838 14.44C21.0038 14.44 20.7471 14.4033 20.5138 14.33L20.0138 14.8C20.0871 14.8533 20.1771 14.9 20.2838 14.94C20.3971 14.9733 20.5571 15.0067 20.7638 15.04C20.9705 15.0667 21.2605 15.0967 21.6338 15.13C22.3005 15.1767 22.7771 15.33 23.0638 15.59C23.3505 15.85 23.4938 16.19 23.4938 16.61C23.4938 16.8967 23.4138 17.17 23.2538 17.43C23.1005 17.69 22.8605 17.9033 22.5338 18.07C22.2138 18.2367 21.8005 18.32 21.2938 18.32C20.8471 18.32 20.4505 18.26 20.1038 18.14C19.7571 18.0267 19.4871 17.85 19.2938 17.61C19.1005 17.3767 19.0038 17.08 19.0038 16.72C19.0038 16.5333 19.0538 16.33 19.1538 16.11C19.2538 15.8967 19.4405 15.6933 19.7138 15.5C19.5671 15.44 19.4405 15.3767 19.3338 15.31C19.2338 15.2367 19.1405 15.1567 19.0538 15.07V14.84L19.9038 14C19.5105 13.6667 19.3138 13.2267 19.3138 12.68C19.3138 12.3533 19.3905 12.0567 19.5438 11.79C19.6971 11.5233 19.9205 11.3133 20.2138 11.16C20.5071 11 20.8638 10.92 21.2838 10.92C21.5705 10.92 21.8305 10.96 22.0638 11.04H23.8938V11.67L22.9638 11.71C23.1571 11.99 23.2538 12.3133 23.2538 12.68C23.2538 13.0067 23.1738 13.3033 23.0138 13.57C22.8605 13.8367 22.6371 14.05 22.3438 14.21C22.0571 14.3633 21.7038 14.44 21.2838 14.44ZM21.2838 13.75C21.6371 13.75 21.9171 13.66 22.1238 13.48C22.3371 13.2933 22.4438 13.0267 22.4438 12.68C22.4438 12.34 22.3371 12.08 22.1238 11.9C21.9171 11.7133 21.6371 11.62 21.2838 11.62C20.9238 11.62 20.6371 11.7133 20.4238 11.9C20.2171 12.08 20.1138 12.34 20.1138 12.68C20.1138 13.0267 20.2171 13.2933 20.4238 13.48C20.6371 13.66 20.9238 13.75 21.2838 13.75ZM19.8238 16.64C19.8238 16.9733 19.9638 17.22 20.2438 17.38C20.5238 17.5467 20.8738 17.63 21.2938 17.63C21.7071 17.63 22.0371 17.54 22.2838 17.36C22.5371 17.18 22.6638 16.94 22.6638 16.64C22.6638 16.4267 22.5771 16.24 22.4038 16.08C22.2305 15.9267 21.9105 15.8367 21.4438 15.81C21.0771 15.7833 20.7605 15.75 20.4938 15.71C20.2205 15.8567 20.0405 16.0133 19.9538 16.18C19.8671 16.3533 19.8238 16.5067 19.8238 16.64ZM24.8414 16V11.04H25.6014L25.6714 11.99C25.8247 11.6633 26.058 11.4033 26.3714 11.21C26.6847 11.0167 27.0714 10.92 27.5314 10.92V11.8H27.3014C27.008 11.8 26.738 11.8533 26.4914 11.96C26.2447 12.06 26.048 12.2333 25.9014 12.48C25.7547 12.7267 25.6814 13.0667 25.6814 13.5V16H24.8414ZM30.1242 16.12C29.7108 16.12 29.3675 16.05 29.0942 15.91C28.8208 15.77 28.6175 15.5833 28.4842 15.35C28.3508 15.1167 28.2842 14.8633 28.2842 14.59C28.2842 14.0833 28.4775 13.6933 28.8642 13.42C29.2508 13.1467 29.7775 13.01 30.4442 13.01H31.7842V12.95C31.7842 12.5167 31.6708 12.19 31.4442 11.97C31.2175 11.7433 30.9142 11.63 30.5342 11.63C30.2075 11.63 29.9242 11.7133 29.6842 11.88C29.4508 12.04 29.3042 12.2767 29.2442 12.59H28.3842C28.4175 12.23 28.5375 11.9267 28.7442 11.68C28.9575 11.4333 29.2208 11.2467 29.5342 11.12C29.8475 10.9867 30.1808 10.92 30.5342 10.92C31.2275 10.92 31.7475 11.1067 32.0942 11.48C32.4475 11.8467 32.6242 12.3367 32.6242 12.95V16H31.8742L31.8242 15.11C31.6842 15.39 31.4775 15.63 31.2042 15.83C30.9375 16.0233 30.5775 16.12 30.1242 16.12ZM30.2542 15.41C30.5742 15.41 30.8475 15.3267 31.0742 15.16C31.3075 14.9933 31.4842 14.7767 31.6042 14.51C31.7242 14.2433 31.7842 13.9633 31.7842 13.67V13.66H30.5142C30.0208 13.66 29.6708 13.7467 29.4642 13.92C29.2642 14.0867 29.1642 14.2967 29.1642 14.55C29.1642 14.81 29.2575 15.02 29.4442 15.18C29.6375 15.3333 29.9075 15.41 30.2542 15.41ZM36.1343 16.12C35.641 16.12 35.2077 16.0067 34.8343 15.78C34.4677 15.5533 34.181 15.2433 33.9743 14.85C33.7743 14.4567 33.6743 14.01 33.6743 13.51C33.6743 13.01 33.7777 12.5667 33.9843 12.18C34.191 11.7867 34.4777 11.48 34.8443 11.26C35.211 11.0333 35.6443 10.92 36.1443 10.92C36.551 10.92 36.911 11.0033 37.2243 11.17C37.5377 11.3367 37.781 11.57 37.9543 11.87V8.8H38.7943V16H38.0343L37.9543 15.18C37.7943 15.42 37.5643 15.6367 37.2643 15.83C36.9643 16.0233 36.5877 16.12 36.1343 16.12ZM36.2243 15.39C36.5577 15.39 36.851 15.3133 37.1043 15.16C37.3643 15 37.5643 14.78 37.7043 14.5C37.851 14.22 37.9243 13.8933 37.9243 13.52C37.9243 13.1467 37.851 12.82 37.7043 12.54C37.5643 12.26 37.3643 12.0433 37.1043 11.89C36.851 11.73 36.5577 11.65 36.2243 11.65C35.8977 11.65 35.6043 11.73 35.3443 11.89C35.091 12.0433 34.891 12.26 34.7443 12.54C34.6043 12.82 34.5343 13.1467 34.5343 13.52C34.5343 13.8933 34.6043 14.22 34.7443 14.5C34.891 14.78 35.091 15 35.3443 15.16C35.6043 15.3133 35.8977 15.39 36.2243 15.39ZM42.3936 16.12C41.9203 16.12 41.5003 16.0133 41.1336 15.8C40.767 15.58 40.477 15.2767 40.2636 14.89C40.057 14.5033 39.9536 14.0467 39.9536 13.52C39.9536 13 40.057 12.5467 40.2636 12.16C40.4703 11.7667 40.757 11.4633 41.1236 11.25C41.497 11.03 41.927 10.92 42.4136 10.92C42.8936 10.92 43.307 11.03 43.6536 11.25C44.007 11.4633 44.277 11.7467 44.4636 12.1C44.6503 12.4533 44.7436 12.8333 44.7436 13.24C44.7436 13.3133 44.7403 13.3867 44.7336 13.46C44.7336 13.5333 44.7336 13.6167 44.7336 13.71H40.7836C40.8036 14.09 40.8903 14.4067 41.0436 14.66C41.2036 14.9067 41.4003 15.0933 41.6336 15.22C41.8736 15.3467 42.127 15.41 42.3936 15.41C42.7403 15.41 43.0303 15.33 43.2636 15.17C43.497 15.01 43.667 14.7933 43.7736 14.52H44.6036C44.4703 14.98 44.2136 15.3633 43.8336 15.67C43.4603 15.97 42.9803 16.12 42.3936 16.12ZM42.3936 11.63C41.9936 11.63 41.637 11.7533 41.3236 12C41.017 12.24 40.8403 12.5933 40.7936 13.06H43.9136C43.8936 12.6133 43.7403 12.2633 43.4536 12.01C43.167 11.7567 42.8136 11.63 42.3936 11.63Z" fill="black"/>
</svg>
