<svg width="50" height="24" viewBox="0 0 50 24" fill="none" xmlns="http://www.w3.org/2000/svg">
<rect width="50" height="24" rx="6" fill="#CCF8FE"/>
<path d="M9.65699 16V9H12.117C12.6103 9 13.017 9.08 13.337 9.24C13.6637 9.39333 13.907 9.60667 14.067 9.88C14.227 10.1467 14.307 10.4467 14.307 10.78C14.307 11.2333 14.1837 11.59 13.937 11.85C13.697 12.11 13.407 12.29 13.067 12.39C13.327 12.4367 13.5637 12.54 13.777 12.7C13.9903 12.86 14.157 13.06 14.277 13.3C14.4037 13.54 14.467 13.8033 14.467 14.09C14.467 14.4433 14.3803 14.7667 14.207 15.06C14.0337 15.3467 13.777 15.5767 13.437 15.75C13.097 15.9167 12.6837 16 12.197 16H9.65699ZM10.497 12.06H12.057C12.5037 12.06 12.847 11.9567 13.087 11.75C13.327 11.5367 13.447 11.2433 13.447 10.87C13.447 10.5167 13.327 10.2333 13.087 10.02C12.8537 9.80667 12.5003 9.7 12.027 9.7H10.497V12.06ZM10.497 15.3H12.107C12.587 15.3 12.957 15.19 13.217 14.97C13.477 14.7433 13.607 14.43 13.607 14.03C13.607 13.6367 13.4703 13.3233 13.197 13.09C12.9237 12.85 12.5537 12.73 12.087 12.73H10.497V15.3ZM17.8826 16.12C17.416 16.12 16.996 16.0133 16.6226 15.8C16.2493 15.5867 15.9526 15.2867 15.7326 14.9C15.5193 14.5067 15.4126 14.0467 15.4126 13.52C15.4126 12.9933 15.5226 12.5367 15.7426 12.15C15.9626 11.7567 16.2593 11.4533 16.6326 11.24C17.0126 11.0267 17.436 10.92 17.9026 10.92C18.3693 10.92 18.7893 11.0267 19.1626 11.24C19.536 11.4533 19.8293 11.7567 20.0426 12.15C20.2626 12.5367 20.3726 12.9933 20.3726 13.52C20.3726 14.0467 20.2626 14.5067 20.0426 14.9C19.8226 15.2867 19.5226 15.5867 19.1426 15.8C18.7693 16.0133 18.3493 16.12 17.8826 16.12ZM17.8826 15.4C18.1693 15.4 18.436 15.33 18.6826 15.19C18.9293 15.05 19.1293 14.84 19.2826 14.56C19.436 14.28 19.5126 13.9333 19.5126 13.52C19.5126 13.1067 19.436 12.76 19.2826 12.48C19.136 12.2 18.9393 11.99 18.6926 11.85C18.446 11.71 18.1826 11.64 17.9026 11.64C17.616 11.64 17.3493 11.71 17.1026 11.85C16.856 11.99 16.656 12.2 16.5026 12.48C16.3493 12.76 16.2726 13.1067 16.2726 13.52C16.2726 13.9333 16.3493 14.28 16.5026 14.56C16.656 14.84 16.8526 15.05 17.0926 15.19C17.3393 15.33 17.6026 15.4 17.8826 15.4ZM23.2857 14.44C23.0057 14.44 22.7491 14.4033 22.5157 14.33L22.0157 14.8C22.0891 14.8533 22.1791 14.9 22.2857 14.94C22.3991 14.9733 22.5591 15.0067 22.7657 15.04C22.9724 15.0667 23.2624 15.0967 23.6357 15.13C24.3024 15.1767 24.7791 15.33 25.0657 15.59C25.3524 15.85 25.4957 16.19 25.4957 16.61C25.4957 16.8967 25.4157 17.17 25.2557 17.43C25.1024 17.69 24.8624 17.9033 24.5357 18.07C24.2157 18.2367 23.8024 18.32 23.2957 18.32C22.8491 18.32 22.4524 18.26 22.1057 18.14C21.7591 18.0267 21.4891 17.85 21.2957 17.61C21.1024 17.3767 21.0057 17.08 21.0057 16.72C21.0057 16.5333 21.0557 16.33 21.1557 16.11C21.2557 15.8967 21.4424 15.6933 21.7157 15.5C21.5691 15.44 21.4424 15.3767 21.3357 15.31C21.2357 15.2367 21.1424 15.1567 21.0557 15.07V14.84L21.9057 14C21.5124 13.6667 21.3157 13.2267 21.3157 12.68C21.3157 12.3533 21.3924 12.0567 21.5457 11.79C21.6991 11.5233 21.9224 11.3133 22.2157 11.16C22.5091 11 22.8657 10.92 23.2857 10.92C23.5724 10.92 23.8324 10.96 24.0657 11.04H25.8957V11.67L24.9657 11.71C25.1591 11.99 25.2557 12.3133 25.2557 12.68C25.2557 13.0067 25.1757 13.3033 25.0157 13.57C24.8624 13.8367 24.6391 14.05 24.3457 14.21C24.0591 14.3633 23.7057 14.44 23.2857 14.44ZM23.2857 13.75C23.6391 13.75 23.9191 13.66 24.1257 13.48C24.3391 13.2933 24.4457 13.0267 24.4457 12.68C24.4457 12.34 24.3391 12.08 24.1257 11.9C23.9191 11.7133 23.6391 11.62 23.2857 11.62C22.9257 11.62 22.6391 11.7133 22.4257 11.9C22.2191 12.08 22.1157 12.34 22.1157 12.68C22.1157 13.0267 22.2191 13.2933 22.4257 13.48C22.6391 13.66 22.9257 13.75 23.2857 13.75ZM21.8257 16.64C21.8257 16.9733 21.9657 17.22 22.2457 17.38C22.5257 17.5467 22.8757 17.63 23.2957 17.63C23.7091 17.63 24.0391 17.54 24.2857 17.36C24.5391 17.18 24.6657 16.94 24.6657 16.64C24.6657 16.4267 24.5791 16.24 24.4057 16.08C24.2324 15.9267 23.9124 15.8367 23.4457 15.81C23.0791 15.7833 22.7624 15.75 22.4957 15.71C22.2224 15.8567 22.0424 16.0133 21.9557 16.18C21.8691 16.3533 21.8257 16.5067 21.8257 16.64ZM28.908 16.12C28.4413 16.12 28.0213 16.0133 27.648 15.8C27.2747 15.5867 26.978 15.2867 26.758 14.9C26.5447 14.5067 26.438 14.0467 26.438 13.52C26.438 12.9933 26.548 12.5367 26.768 12.15C26.988 11.7567 27.2847 11.4533 27.658 11.24C28.038 11.0267 28.4613 10.92 28.928 10.92C29.3947 10.92 29.8147 11.0267 30.188 11.24C30.5613 11.4533 30.8547 11.7567 31.068 12.15C31.288 12.5367 31.398 12.9933 31.398 13.52C31.398 14.0467 31.288 14.5067 31.068 14.9C30.848 15.2867 30.548 15.5867 30.168 15.8C29.7947 16.0133 29.3747 16.12 28.908 16.12ZM28.908 15.4C29.1947 15.4 29.4613 15.33 29.708 15.19C29.9547 15.05 30.1547 14.84 30.308 14.56C30.4613 14.28 30.538 13.9333 30.538 13.52C30.538 13.1067 30.4613 12.76 30.308 12.48C30.1613 12.2 29.9647 11.99 29.718 11.85C29.4713 11.71 29.208 11.64 28.928 11.64C28.6413 11.64 28.3747 11.71 28.128 11.85C27.8813 11.99 27.6813 12.2 27.528 12.48C27.3747 12.76 27.298 13.1067 27.298 13.52C27.298 13.9333 27.3747 14.28 27.528 14.56C27.6813 14.84 27.878 15.05 28.118 15.19C28.3647 15.33 28.628 15.4 28.908 15.4ZM34.3307 16C33.8773 16 33.5207 15.89 33.2607 15.67C33.0007 15.45 32.8707 15.0533 32.8707 14.48V11.75H32.0107V11.04H32.8707L32.9807 9.85H33.7107V11.04H35.1707V11.75H33.7107V14.48C33.7107 14.7933 33.774 15.0067 33.9007 15.12C34.0273 15.2267 34.2507 15.28 34.5707 15.28H35.0907V16H34.3307ZM37.8879 16.12C37.4745 16.12 37.1312 16.05 36.8579 15.91C36.5845 15.77 36.3812 15.5833 36.2479 15.35C36.1145 15.1167 36.0479 14.8633 36.0479 14.59C36.0479 14.0833 36.2412 13.6933 36.6279 13.42C37.0145 13.1467 37.5412 13.01 38.2079 13.01H39.5479V12.95C39.5479 12.5167 39.4345 12.19 39.2079 11.97C38.9812 11.7433 38.6779 11.63 38.2979 11.63C37.9712 11.63 37.6879 11.7133 37.4479 11.88C37.2145 12.04 37.0679 12.2767 37.0079 12.59H36.1479C36.1812 12.23 36.3012 11.9267 36.5079 11.68C36.7212 11.4333 36.9845 11.2467 37.2979 11.12C37.6112 10.9867 37.9445 10.92 38.2979 10.92C38.9912 10.92 39.5112 11.1067 39.8579 11.48C40.2112 11.8467 40.3879 12.3367 40.3879 12.95V16H39.6379L39.5879 15.11C39.4479 15.39 39.2412 15.63 38.9679 15.83C38.7012 16.0233 38.3412 16.12 37.8879 16.12ZM38.0179 15.41C38.3379 15.41 38.6112 15.3267 38.8379 15.16C39.0712 14.9933 39.2479 14.7767 39.3679 14.51C39.4879 14.2433 39.5479 13.9633 39.5479 13.67V13.66H38.2779C37.7845 13.66 37.4345 13.7467 37.2279 13.92C37.0279 14.0867 36.9279 14.2967 36.9279 14.55C36.9279 14.81 37.0212 15.02 37.2079 15.18C37.4012 15.3333 37.6712 15.41 38.0179 15.41ZM38.0379 10.63V10L40.1379 8.73V9.46L38.0379 10.63Z" fill="black"/>
</svg>
