<svg width="60" height="24" viewBox="0 0 60 24" fill="none" xmlns="http://www.w3.org/2000/svg">
<rect width="60" height="24" rx="6" fill="#FFF5CC"/>
<path d="M9.43402 16.12C8.74736 16.12 8.15402 15.97 7.65402 15.67C7.16069 15.3633 6.77736 14.94 6.50402 14.4C6.23069 13.8533 6.09402 13.22 6.09402 12.5C6.09402 11.7867 6.23069 11.16 6.50402 10.62C6.77736 10.0733 7.16069 9.64667 7.65402 9.34C8.15402 9.03333 8.74736 8.88 9.43402 8.88C10.234 8.88 10.884 9.07333 11.384 9.46C11.8907 9.84 12.214 10.3733 12.354 11.06H11.424C11.3174 10.6267 11.0974 10.28 10.764 10.02C10.4374 9.75333 9.99402 9.62 9.43402 9.62C8.93402 9.62 8.49736 9.73667 8.12402 9.97C7.75069 10.1967 7.46069 10.5267 7.25402 10.96C7.05402 11.3867 6.95402 11.9 6.95402 12.5C6.95402 13.1 7.05402 13.6167 7.25402 14.05C7.46069 14.4767 7.75069 14.8067 8.12402 15.04C8.49736 15.2667 8.93402 15.38 9.43402 15.38C9.99402 15.38 10.4374 15.2533 10.764 15C11.0974 14.74 11.3174 14.3967 11.424 13.97H12.354C12.214 14.6433 11.8907 15.17 11.384 15.55C10.884 15.93 10.234 16.12 9.43402 16.12ZM15.7713 16.12C15.3046 16.12 14.8846 16.0133 14.5113 15.8C14.138 15.5867 13.8413 15.2867 13.6213 14.9C13.408 14.5067 13.3013 14.0467 13.3013 13.52C13.3013 12.9933 13.4113 12.5367 13.6313 12.15C13.8513 11.7567 14.148 11.4533 14.5213 11.24C14.9013 11.0267 15.3246 10.92 15.7913 10.92C16.258 10.92 16.678 11.0267 17.0513 11.24C17.4246 11.4533 17.718 11.7567 17.9313 12.15C18.1513 12.5367 18.2613 12.9933 18.2613 13.52C18.2613 14.0467 18.1513 14.5067 17.9313 14.9C17.7113 15.2867 17.4113 15.5867 17.0313 15.8C16.658 16.0133 16.238 16.12 15.7713 16.12ZM15.7713 15.4C16.058 15.4 16.3246 15.33 16.5713 15.19C16.818 15.05 17.018 14.84 17.1713 14.56C17.3246 14.28 17.4013 13.9333 17.4013 13.52C17.4013 13.1067 17.3246 12.76 17.1713 12.48C17.0246 12.2 16.828 11.99 16.5813 11.85C16.3346 11.71 16.0713 11.64 15.7913 11.64C15.5046 11.64 15.238 11.71 14.9913 11.85C14.7446 11.99 14.5446 12.2 14.3913 12.48C14.238 12.76 14.1613 13.1067 14.1613 13.52C14.1613 13.9333 14.238 14.28 14.3913 14.56C14.5446 14.84 14.7413 15.05 14.9813 15.19C15.228 15.33 15.4913 15.4 15.7713 15.4ZM19.4293 16V8.8H20.2693V16H19.4293ZM23.4561 16.12C22.8694 16.12 22.4027 15.9433 22.0561 15.59C21.7094 15.23 21.5361 14.68 21.5361 13.94V11.04H22.3761V13.85C22.3761 14.8833 22.7994 15.4 23.6461 15.4C24.0794 15.4 24.4361 15.2467 24.7161 14.94C25.0027 14.6267 25.1461 14.1833 25.1461 13.61V11.04H25.9861V16H25.2261L25.1661 15.11C25.0127 15.4233 24.7827 15.67 24.4761 15.85C24.1761 16.03 23.8361 16.12 23.4561 16.12ZM27.3687 16V11.04H28.1287L28.1887 11.76C28.3487 11.4933 28.562 11.2867 28.8287 11.14C29.0954 10.9933 29.3954 10.92 29.7287 10.92C30.122 10.92 30.4587 11 30.7387 11.16C31.0254 11.32 31.2454 11.5633 31.3987 11.89C31.572 11.59 31.8087 11.3533 32.1087 11.18C32.4154 11.0067 32.7454 10.92 33.0987 10.92C33.692 10.92 34.1654 11.1 34.5187 11.46C34.872 11.8133 35.0487 12.36 35.0487 13.1V16H34.2187V13.19C34.2187 12.6767 34.1154 12.29 33.9087 12.03C33.702 11.77 33.4054 11.64 33.0187 11.64C32.6187 11.64 32.2854 11.7967 32.0187 12.11C31.7587 12.4167 31.6287 12.8567 31.6287 13.43V16H30.7887V13.19C30.7887 12.6767 30.6854 12.29 30.4787 12.03C30.272 11.77 29.9754 11.64 29.5887 11.64C29.1954 11.64 28.8654 11.7967 28.5987 12.11C28.3387 12.4167 28.2087 12.8567 28.2087 13.43V16H27.3687ZM38.964 16.12C38.5574 16.12 38.194 16.0367 37.874 15.87C37.5607 15.7033 37.3207 15.47 37.154 15.17L37.074 16H36.314V8.8H37.154V11.86C37.314 11.62 37.5407 11.4033 37.834 11.21C38.134 11.0167 38.514 10.92 38.974 10.92C39.4674 10.92 39.8974 11.0333 40.264 11.26C40.6307 11.4867 40.914 11.7967 41.114 12.19C41.3207 12.5833 41.424 13.03 41.424 13.53C41.424 14.03 41.3207 14.4767 41.114 14.87C40.914 15.2567 40.6274 15.5633 40.254 15.79C39.8874 16.01 39.4574 16.12 38.964 16.12ZM38.874 15.39C39.2074 15.39 39.5007 15.3133 39.754 15.16C40.0074 15 40.2074 14.78 40.354 14.5C40.5007 14.22 40.574 13.8933 40.574 13.52C40.574 13.1467 40.5007 12.82 40.354 12.54C40.2074 12.26 40.0074 12.0433 39.754 11.89C39.5007 11.73 39.2074 11.65 38.874 11.65C38.5407 11.65 38.2474 11.73 37.994 11.89C37.7407 12.0433 37.5407 12.26 37.394 12.54C37.2474 12.82 37.174 13.1467 37.174 13.52C37.174 13.8933 37.2474 14.22 37.394 14.5C37.5407 14.78 37.7407 15 37.994 15.16C38.2474 15.3133 38.5407 15.39 38.874 15.39ZM44.4033 16.12C43.8167 16.12 43.35 15.9433 43.0033 15.59C42.6567 15.23 42.4833 14.68 42.4833 13.94V11.04H43.3233V13.85C43.3233 14.8833 43.7467 15.4 44.5933 15.4C45.0267 15.4 45.3833 15.2467 45.6633 14.94C45.95 14.6267 46.0933 14.1833 46.0933 13.61V11.04H46.9333V16H46.1733L46.1133 15.11C45.96 15.4233 45.73 15.67 45.4233 15.85C45.1233 16.03 44.7833 16.12 44.4033 16.12ZM50.216 16.12C49.6226 16.12 49.1293 15.97 48.736 15.67C48.3426 15.37 48.1126 14.9633 48.046 14.45H48.906C48.9593 14.71 49.096 14.9367 49.316 15.13C49.5426 15.3167 49.846 15.41 50.226 15.41C50.5793 15.41 50.8393 15.3367 51.006 15.19C51.1726 15.0367 51.256 14.8567 51.256 14.65C51.256 14.35 51.146 14.15 50.926 14.05C50.7126 13.95 50.4093 13.86 50.016 13.78C49.7493 13.7267 49.4826 13.65 49.216 13.55C48.9493 13.45 48.726 13.31 48.546 13.13C48.366 12.9433 48.276 12.7 48.276 12.4C48.276 11.9667 48.436 11.6133 48.756 11.34C49.0826 11.06 49.5226 10.92 50.076 10.92C50.6026 10.92 51.0326 11.0533 51.366 11.32C51.706 11.58 51.9026 11.9533 51.956 12.44H51.126C51.0926 12.1867 50.9826 11.99 50.796 11.85C50.616 11.7033 50.3726 11.63 50.066 11.63C49.766 11.63 49.5326 11.6933 49.366 11.82C49.206 11.9467 49.126 12.1133 49.126 12.32C49.126 12.52 49.2293 12.6767 49.436 12.79C49.6493 12.9033 49.936 13 50.296 13.08C50.6026 13.1467 50.8926 13.23 51.166 13.33C51.446 13.4233 51.6726 13.5667 51.846 13.76C52.026 13.9467 52.116 14.22 52.116 14.58C52.1226 15.0267 51.9526 15.3967 51.606 15.69C51.266 15.9767 50.8026 16.12 50.216 16.12Z" fill="black"/>
</svg>
