<svg width="40" height="24" viewBox="0 0 40 24" fill="none" xmlns="http://www.w3.org/2000/svg">
<rect width="40" height="24" rx="6" fill="#DAD7FE"/>
<path d="M8.67555 16V9H10.8255C12.0589 9 12.9655 9.31333 13.5455 9.94C14.1322 10.5667 14.4255 11.4267 14.4255 12.52C14.4255 13.5933 14.1322 14.4433 13.5455 15.07C12.9655 15.69 12.0589 16 10.8255 16H8.67555ZM9.51555 15.3H10.8055C11.4855 15.3 12.0255 15.19 12.4255 14.97C12.8322 14.7433 13.1222 14.4233 13.2955 14.01C13.4689 13.59 13.5555 13.0933 13.5555 12.52C13.5555 11.9333 13.4689 11.43 13.2955 11.01C13.1222 10.59 12.8322 10.2667 12.4255 10.04C12.0255 9.81333 11.4855 9.7 10.8055 9.7H9.51555V15.3ZM17.8184 16.12C17.3451 16.12 16.9251 16.0133 16.5584 15.8C16.1918 15.58 15.9018 15.2767 15.6884 14.89C15.4818 14.5033 15.3784 14.0467 15.3784 13.52C15.3784 13 15.4818 12.5467 15.6884 12.16C15.8951 11.7667 16.1818 11.4633 16.5484 11.25C16.9218 11.03 17.3518 10.92 17.8384 10.92C18.3184 10.92 18.7318 11.03 19.0784 11.25C19.4318 11.4633 19.7018 11.7467 19.8884 12.1C20.0751 12.4533 20.1684 12.8333 20.1684 13.24C20.1684 13.3133 20.1651 13.3867 20.1584 13.46C20.1584 13.5333 20.1584 13.6167 20.1584 13.71H16.2084C16.2284 14.09 16.3151 14.4067 16.4684 14.66C16.6284 14.9067 16.8251 15.0933 17.0584 15.22C17.2984 15.3467 17.5518 15.41 17.8184 15.41C18.1651 15.41 18.4551 15.33 18.6884 15.17C18.9218 15.01 19.0918 14.7933 19.1984 14.52H20.0284C19.8951 14.98 19.6384 15.3633 19.2584 15.67C18.8851 15.97 18.4051 16.12 17.8184 16.12ZM17.8184 11.63C17.4184 11.63 17.0618 11.7533 16.7484 12C16.4418 12.24 16.2651 12.5933 16.2184 13.06H19.3384C19.3184 12.6133 19.1651 12.2633 18.8784 12.01C18.5918 11.7567 18.2384 11.63 17.8184 11.63ZM23.5118 16.12C23.0385 16.12 22.6185 16.0133 22.2518 15.8C21.8851 15.58 21.5951 15.2767 21.3818 14.89C21.1751 14.5033 21.0718 14.0467 21.0718 13.52C21.0718 13 21.1751 12.5467 21.3818 12.16C21.5885 11.7667 21.8751 11.4633 22.2418 11.25C22.6151 11.03 23.0451 10.92 23.5318 10.92C24.0118 10.92 24.4251 11.03 24.7718 11.25C25.1251 11.4633 25.3951 11.7467 25.5818 12.1C25.7685 12.4533 25.8618 12.8333 25.8618 13.24C25.8618 13.3133 25.8585 13.3867 25.8518 13.46C25.8518 13.5333 25.8518 13.6167 25.8518 13.71H21.9018C21.9218 14.09 22.0085 14.4067 22.1618 14.66C22.3218 14.9067 22.5185 15.0933 22.7518 15.22C22.9918 15.3467 23.2451 15.41 23.5118 15.41C23.8585 15.41 24.1485 15.33 24.3818 15.17C24.6151 15.01 24.7851 14.7933 24.8918 14.52H25.7218C25.5885 14.98 25.3318 15.3633 24.9518 15.67C24.5785 15.97 24.0985 16.12 23.5118 16.12ZM23.5118 11.63C23.1118 11.63 22.7551 11.7533 22.4418 12C22.1351 12.24 21.9585 12.5933 21.9118 13.06H25.0318C25.0118 12.6133 24.8585 12.2633 24.5718 12.01C24.2851 11.7567 23.9318 11.63 23.5118 11.63ZM26.9752 18.2V11.04H27.7352L27.8152 11.86C27.9752 11.62 28.2018 11.4033 28.4952 11.21C28.7952 11.0167 29.1752 10.92 29.6352 10.92C30.1285 10.92 30.5585 11.0333 30.9252 11.26C31.2918 11.4867 31.5752 11.7967 31.7752 12.19C31.9818 12.5833 32.0852 13.03 32.0852 13.53C32.0852 14.03 31.9818 14.4767 31.7752 14.87C31.5752 15.2567 31.2885 15.5633 30.9152 15.79C30.5485 16.01 30.1185 16.12 29.6252 16.12C29.2185 16.12 28.8552 16.0367 28.5352 15.87C28.2218 15.7033 27.9818 15.47 27.8152 15.17V18.2H26.9752ZM29.5352 15.39C29.8685 15.39 30.1618 15.3133 30.4152 15.16C30.6685 15 30.8685 14.78 31.0152 14.5C31.1618 14.22 31.2352 13.8933 31.2352 13.52C31.2352 13.1467 31.1618 12.82 31.0152 12.54C30.8685 12.26 30.6685 12.0433 30.4152 11.89C30.1618 11.73 29.8685 11.65 29.5352 11.65C29.2018 11.65 28.9085 11.73 28.6552 11.89C28.4018 12.0433 28.2018 12.26 28.0552 12.54C27.9085 12.82 27.8352 13.1467 27.8352 13.52C27.8352 13.8933 27.9085 14.22 28.0552 14.5C28.2018 14.78 28.4018 15 28.6552 15.16C28.9085 15.3133 29.2018 15.39 29.5352 15.39Z" fill="black"/>
</svg>
