<svg width="60" height="24" viewBox="0 0 60 24" fill="none" xmlns="http://www.w3.org/2000/svg">
<rect width="60" height="24" rx="6" fill="#CCF8FE"/>
<path d="M10.0574 16V9H12.2074C13.4407 9 14.3474 9.31333 14.9274 9.94C15.514 10.5667 15.8074 11.4267 15.8074 12.52C15.8074 13.5933 15.514 14.4433 14.9274 15.07C14.3474 15.69 13.4407 16 12.2074 16H10.0574ZM10.8974 15.3H12.1874C12.8674 15.3 13.4074 15.19 13.8074 14.97C14.214 14.7433 14.504 14.4233 14.6774 14.01C14.8507 13.59 14.9374 13.0933 14.9374 12.52C14.9374 11.9333 14.8507 11.43 14.6774 11.01C14.504 10.59 14.214 10.2667 13.8074 10.04C13.4074 9.81333 12.8674 9.7 12.1874 9.7H10.8974V15.3ZM19.2003 16.12C18.7269 16.12 18.3069 16.0133 17.9403 15.8C17.5736 15.58 17.2836 15.2767 17.0703 14.89C16.8636 14.5033 16.7603 14.0467 16.7603 13.52C16.7603 13 16.8636 12.5467 17.0703 12.16C17.2769 11.7667 17.5636 11.4633 17.9303 11.25C18.3036 11.03 18.7336 10.92 19.2203 10.92C19.7003 10.92 20.1136 11.03 20.4603 11.25C20.8136 11.4633 21.0836 11.7467 21.2703 12.1C21.4569 12.4533 21.5503 12.8333 21.5503 13.24C21.5503 13.3133 21.5469 13.3867 21.5403 13.46C21.5403 13.5333 21.5403 13.6167 21.5403 13.71H17.5903C17.6103 14.09 17.6969 14.4067 17.8503 14.66C18.0103 14.9067 18.2069 15.0933 18.4403 15.22C18.6803 15.3467 18.9336 15.41 19.2003 15.41C19.5469 15.41 19.8369 15.33 20.0703 15.17C20.3036 15.01 20.4736 14.7933 20.5803 14.52H21.4103C21.2769 14.98 21.0203 15.3633 20.6403 15.67C20.2669 15.97 19.7869 16.12 19.2003 16.12ZM19.2003 11.63C18.8003 11.63 18.4436 11.7533 18.1303 12C17.8236 12.24 17.6469 12.5933 17.6003 13.06H20.7203C20.7003 12.6133 20.5469 12.2633 20.2603 12.01C19.9736 11.7567 19.6203 11.63 19.2003 11.63ZM24.5636 16.12C23.9703 16.12 23.477 15.97 23.0836 15.67C22.6903 15.37 22.4603 14.9633 22.3936 14.45H23.2536C23.307 14.71 23.4436 14.9367 23.6636 15.13C23.8903 15.3167 24.1936 15.41 24.5736 15.41C24.927 15.41 25.187 15.3367 25.3536 15.19C25.5203 15.0367 25.6036 14.8567 25.6036 14.65C25.6036 14.35 25.4936 14.15 25.2736 14.05C25.0603 13.95 24.757 13.86 24.3636 13.78C24.097 13.7267 23.8303 13.65 23.5636 13.55C23.297 13.45 23.0736 13.31 22.8936 13.13C22.7136 12.9433 22.6236 12.7 22.6236 12.4C22.6236 11.9667 22.7836 11.6133 23.1036 11.34C23.4303 11.06 23.8703 10.92 24.4236 10.92C24.9503 10.92 25.3803 11.0533 25.7136 11.32C26.0536 11.58 26.2503 11.9533 26.3036 12.44H25.4736C25.4403 12.1867 25.3303 11.99 25.1436 11.85C24.9636 11.7033 24.7203 11.63 24.4136 11.63C24.1136 11.63 23.8803 11.6933 23.7136 11.82C23.5536 11.9467 23.4736 12.1133 23.4736 12.32C23.4736 12.52 23.577 12.6767 23.7836 12.79C23.997 12.9033 24.2836 13 24.6436 13.08C24.9503 13.1467 25.2403 13.23 25.5136 13.33C25.7936 13.4233 26.0203 13.5667 26.1936 13.76C26.3736 13.9467 26.4636 14.22 26.4636 14.58C26.4703 15.0267 26.3003 15.3967 25.9536 15.69C25.6136 15.9767 25.1503 16.12 24.5636 16.12ZM28.1736 9.94C28.007 9.94 27.867 9.88667 27.7536 9.78C27.647 9.66667 27.5936 9.52667 27.5936 9.36C27.5936 9.2 27.647 9.06667 27.7536 8.96C27.867 8.85333 28.007 8.8 28.1736 8.8C28.3336 8.8 28.4703 8.85333 28.5836 8.96C28.697 9.06667 28.7536 9.2 28.7536 9.36C28.7536 9.52667 28.697 9.66667 28.5836 9.78C28.4703 9.88667 28.3336 9.94 28.1736 9.94ZM27.7536 16V11.04H28.5936V16H27.7536ZM32.0162 14.44C31.7362 14.44 31.4795 14.4033 31.2462 14.33L30.7462 14.8C30.8195 14.8533 30.9095 14.9 31.0162 14.94C31.1295 14.9733 31.2895 15.0067 31.4962 15.04C31.7029 15.0667 31.9929 15.0967 32.3662 15.13C33.0329 15.1767 33.5095 15.33 33.7962 15.59C34.0829 15.85 34.2262 16.19 34.2262 16.61C34.2262 16.8967 34.1462 17.17 33.9862 17.43C33.8329 17.69 33.5929 17.9033 33.2662 18.07C32.9462 18.2367 32.5329 18.32 32.0262 18.32C31.5795 18.32 31.1829 18.26 30.8362 18.14C30.4895 18.0267 30.2195 17.85 30.0262 17.61C29.8329 17.3767 29.7362 17.08 29.7362 16.72C29.7362 16.5333 29.7862 16.33 29.8862 16.11C29.9862 15.8967 30.1729 15.6933 30.4462 15.5C30.2995 15.44 30.1729 15.3767 30.0662 15.31C29.9662 15.2367 29.8729 15.1567 29.7862 15.07V14.84L30.6362 14C30.2429 13.6667 30.0462 13.2267 30.0462 12.68C30.0462 12.3533 30.1229 12.0567 30.2762 11.79C30.4295 11.5233 30.6529 11.3133 30.9462 11.16C31.2395 11 31.5962 10.92 32.0162 10.92C32.3029 10.92 32.5629 10.96 32.7962 11.04H34.6262V11.67L33.6962 11.71C33.8895 11.99 33.9862 12.3133 33.9862 12.68C33.9862 13.0067 33.9062 13.3033 33.7462 13.57C33.5929 13.8367 33.3695 14.05 33.0762 14.21C32.7895 14.3633 32.4362 14.44 32.0162 14.44ZM32.0162 13.75C32.3695 13.75 32.6495 13.66 32.8562 13.48C33.0695 13.2933 33.1762 13.0267 33.1762 12.68C33.1762 12.34 33.0695 12.08 32.8562 11.9C32.6495 11.7133 32.3695 11.62 32.0162 11.62C31.6562 11.62 31.3695 11.7133 31.1562 11.9C30.9495 12.08 30.8462 12.34 30.8462 12.68C30.8462 13.0267 30.9495 13.2933 31.1562 13.48C31.3695 13.66 31.6562 13.75 32.0162 13.75ZM30.5562 16.64C30.5562 16.9733 30.6962 17.22 30.9762 17.38C31.2562 17.5467 31.6062 17.63 32.0262 17.63C32.4395 17.63 32.7695 17.54 33.0162 17.36C33.2695 17.18 33.3962 16.94 33.3962 16.64C33.3962 16.4267 33.3095 16.24 33.1362 16.08C32.9629 15.9267 32.6429 15.8367 32.1762 15.81C31.8095 15.7833 31.4929 15.75 31.2262 15.71C30.9529 15.8567 30.7729 16.0133 30.6862 16.18C30.5995 16.3533 30.5562 16.5067 30.5562 16.64ZM35.5738 16V11.04H36.3338L36.3838 11.93C36.5438 11.6167 36.7738 11.37 37.0738 11.19C37.3738 11.01 37.7138 10.92 38.0938 10.92C38.6805 10.92 39.1471 11.1 39.4938 11.46C39.8471 11.8133 40.0238 12.36 40.0238 13.1V16H39.1838V13.19C39.1838 12.1567 38.7571 11.64 37.9038 11.64C37.4771 11.64 37.1205 11.7967 36.8338 12.11C36.5538 12.4167 36.4138 12.8567 36.4138 13.43V16H35.5738ZM43.5264 16.12C43.0531 16.12 42.6331 16.0133 42.2664 15.8C41.8998 15.58 41.6098 15.2767 41.3964 14.89C41.1898 14.5033 41.0864 14.0467 41.0864 13.52C41.0864 13 41.1898 12.5467 41.3964 12.16C41.6031 11.7667 41.8898 11.4633 42.2564 11.25C42.6298 11.03 43.0598 10.92 43.5464 10.92C44.0264 10.92 44.4398 11.03 44.7864 11.25C45.1398 11.4633 45.4098 11.7467 45.5964 12.1C45.7831 12.4533 45.8764 12.8333 45.8764 13.24C45.8764 13.3133 45.8731 13.3867 45.8664 13.46C45.8664 13.5333 45.8664 13.6167 45.8664 13.71H41.9164C41.9364 14.09 42.0231 14.4067 42.1764 14.66C42.3364 14.9067 42.5331 15.0933 42.7664 15.22C43.0064 15.3467 43.2598 15.41 43.5264 15.41C43.8731 15.41 44.1631 15.33 44.3964 15.17C44.6298 15.01 44.7998 14.7933 44.9064 14.52H45.7364C45.6031 14.98 45.3464 15.3633 44.9664 15.67C44.5931 15.97 44.1131 16.12 43.5264 16.12ZM43.5264 11.63C43.1264 11.63 42.7698 11.7533 42.4564 12C42.1498 12.24 41.9731 12.5933 41.9264 13.06H45.0464C45.0264 12.6133 44.8731 12.2633 44.5864 12.01C44.2998 11.7567 43.9464 11.63 43.5264 11.63ZM46.9898 16V11.04H47.7498L47.8198 11.99C47.9731 11.6633 48.2065 11.4033 48.5198 11.21C48.8331 11.0167 49.2198 10.92 49.6798 10.92V11.8H49.4498C49.1565 11.8 48.8865 11.8533 48.6398 11.96C48.3931 12.06 48.1965 12.2333 48.0498 12.48C47.9031 12.7267 47.8298 13.0667 47.8298 13.5V16H46.9898Z" fill="black"/>
</svg>
