<svg width="50" height="24" viewBox="0 0 50 24" fill="none" xmlns="http://www.w3.org/2000/svg">
<rect width="50" height="24" rx="6" fill="#E2FBD7"/>
<path d="M9.18629 16V9H11.3363C12.5696 9 13.4763 9.31333 14.0563 9.94C14.643 10.5667 14.9363 11.4267 14.9363 12.52C14.9363 13.5933 14.643 14.4433 14.0563 15.07C13.4763 15.69 12.5696 16 11.3363 16H9.18629ZM10.0263 15.3H11.3163C11.9963 15.3 12.5363 15.19 12.9363 14.97C13.343 14.7433 13.633 14.4233 13.8063 14.01C13.9796 13.59 14.0663 13.0933 14.0663 12.52C14.0663 11.9333 13.9796 11.43 13.8063 11.01C13.633 10.59 13.343 10.2667 12.9363 10.04C12.5363 9.81333 11.9963 9.7 11.3163 9.7H10.0263V15.3ZM18.3292 16.12C17.8558 16.12 17.4358 16.0133 17.0692 15.8C16.7025 15.58 16.4125 15.2767 16.1992 14.89C15.9925 14.5033 15.8892 14.0467 15.8892 13.52C15.8892 13 15.9925 12.5467 16.1992 12.16C16.4058 11.7667 16.6925 11.4633 17.0592 11.25C17.4325 11.03 17.8625 10.92 18.3492 10.92C18.8292 10.92 19.2425 11.03 19.5892 11.25C19.9425 11.4633 20.2125 11.7467 20.3992 12.1C20.5858 12.4533 20.6792 12.8333 20.6792 13.24C20.6792 13.3133 20.6758 13.3867 20.6692 13.46C20.6692 13.5333 20.6692 13.6167 20.6692 13.71H16.7192C16.7392 14.09 16.8258 14.4067 16.9792 14.66C17.1392 14.9067 17.3358 15.0933 17.5692 15.22C17.8092 15.3467 18.0625 15.41 18.3292 15.41C18.6758 15.41 18.9658 15.33 19.1992 15.17C19.4325 15.01 19.6025 14.7933 19.7092 14.52H20.5392C20.4058 14.98 20.1492 15.3633 19.7692 15.67C19.3958 15.97 18.9158 16.12 18.3292 16.12ZM18.3292 11.63C17.9292 11.63 17.5725 11.7533 17.2592 12C16.9525 12.24 16.7758 12.5933 16.7292 13.06H19.8492C19.8292 12.6133 19.6758 12.2633 19.3892 12.01C19.1025 11.7567 18.7492 11.63 18.3292 11.63ZM23.5865 16C23.1332 16 22.7765 15.89 22.5165 15.67C22.2565 15.45 22.1265 15.0533 22.1265 14.48V11.75H21.2665V11.04H22.1265L22.2365 9.85H22.9665V11.04H24.4265V11.75H22.9665V14.48C22.9665 14.7933 23.0299 15.0067 23.1565 15.12C23.2832 15.2267 23.5065 15.28 23.8265 15.28H24.3465V16H23.5865ZM25.4937 16V11.04H26.2537L26.3237 11.99C26.477 11.6633 26.7104 11.4033 27.0237 11.21C27.337 11.0167 27.7237 10.92 28.1837 10.92V11.8H27.9537C27.6604 11.8 27.3904 11.8533 27.1437 11.96C26.897 12.06 26.7004 12.2333 26.5537 12.48C26.407 12.7267 26.3337 13.0667 26.3337 13.5V16H25.4937ZM31.201 16.12C30.7343 16.12 30.3143 16.0133 29.941 15.8C29.5676 15.5867 29.271 15.2867 29.051 14.9C28.8376 14.5067 28.731 14.0467 28.731 13.52C28.731 12.9933 28.841 12.5367 29.061 12.15C29.281 11.7567 29.5776 11.4533 29.951 11.24C30.331 11.0267 30.7543 10.92 31.221 10.92C31.6876 10.92 32.1076 11.0267 32.481 11.24C32.8543 11.4533 33.1476 11.7567 33.361 12.15C33.581 12.5367 33.691 12.9933 33.691 13.52C33.691 14.0467 33.581 14.5067 33.361 14.9C33.141 15.2867 32.841 15.5867 32.461 15.8C32.0876 16.0133 31.6676 16.12 31.201 16.12ZM31.201 15.4C31.4876 15.4 31.7543 15.33 32.001 15.19C32.2476 15.05 32.4476 14.84 32.601 14.56C32.7543 14.28 32.831 13.9333 32.831 13.52C32.831 13.1067 32.7543 12.76 32.601 12.48C32.4543 12.2 32.2576 11.99 32.011 11.85C31.7643 11.71 31.501 11.64 31.221 11.64C30.9343 11.64 30.6676 11.71 30.421 11.85C30.1743 11.99 29.9743 12.2 29.821 12.48C29.6676 12.76 29.591 13.1067 29.591 13.52C29.591 13.9333 29.6676 14.28 29.821 14.56C29.9743 14.84 30.171 15.05 30.411 15.19C30.6576 15.33 30.921 15.4 31.201 15.4ZM35.3689 9.94C35.2023 9.94 35.0623 9.88667 34.9489 9.78C34.8423 9.66667 34.7889 9.52667 34.7889 9.36C34.7889 9.2 34.8423 9.06667 34.9489 8.96C35.0623 8.85333 35.2023 8.8 35.3689 8.8C35.5289 8.8 35.6656 8.85333 35.7789 8.96C35.8923 9.06667 35.9489 9.2 35.9489 9.36C35.9489 9.52667 35.8923 9.66667 35.7789 9.78C35.6656 9.88667 35.5289 9.94 35.3689 9.94ZM34.9489 16V11.04H35.7889V16H34.9489ZM39.2115 16C38.7582 16 38.4015 15.89 38.1415 15.67C37.8815 15.45 37.7515 15.0533 37.7515 14.48V11.75H36.8915V11.04H37.7515L37.8615 9.85H38.5915V11.04H40.0515V11.75H38.5915V14.48C38.5915 14.7933 38.6549 15.0067 38.7815 15.12C38.9082 15.2267 39.1315 15.28 39.4515 15.28H39.9715V16H39.2115Z" fill="black"/>
</svg>
