<svg width="40" height="24" viewBox="0 0 40 24" fill="none" xmlns="http://www.w3.org/2000/svg">
<rect width="40" height="24" rx="6" fill="#DAD7FE"/>
<path d="M8.8982 16V9H11.0482C12.2815 9 13.1882 9.31333 13.7682 9.94C14.3549 10.5667 14.6482 11.4267 14.6482 12.52C14.6482 13.5933 14.3549 14.4433 13.7682 15.07C13.1882 15.69 12.2815 16 11.0482 16H8.8982ZM9.7382 15.3H11.0282C11.7082 15.3 12.2482 15.19 12.6482 14.97C13.0549 14.7433 13.3449 14.4233 13.5182 14.01C13.6915 13.59 13.7782 13.0933 13.7782 12.52C13.7782 11.9333 13.6915 11.43 13.5182 11.01C13.3449 10.59 13.0549 10.2667 12.6482 10.04C12.2482 9.81333 11.7082 9.7 11.0282 9.7H9.7382V15.3ZM18.0711 16.12C17.6044 16.12 17.1844 16.0133 16.8111 15.8C16.4378 15.5867 16.1411 15.2867 15.9211 14.9C15.7078 14.5067 15.6011 14.0467 15.6011 13.52C15.6011 12.9933 15.7111 12.5367 15.9311 12.15C16.1511 11.7567 16.4478 11.4533 16.8211 11.24C17.2011 11.0267 17.6244 10.92 18.0911 10.92C18.5578 10.92 18.9778 11.0267 19.3511 11.24C19.7244 11.4533 20.0178 11.7567 20.2311 12.15C20.4511 12.5367 20.5611 12.9933 20.5611 13.52C20.5611 14.0467 20.4511 14.5067 20.2311 14.9C20.0111 15.2867 19.7111 15.5867 19.3311 15.8C18.9578 16.0133 18.5378 16.12 18.0711 16.12ZM18.0711 15.4C18.3578 15.4 18.6244 15.33 18.8711 15.19C19.1178 15.05 19.3178 14.84 19.4711 14.56C19.6244 14.28 19.7011 13.9333 19.7011 13.52C19.7011 13.1067 19.6244 12.76 19.4711 12.48C19.3244 12.2 19.1278 11.99 18.8811 11.85C18.6344 11.71 18.3711 11.64 18.0911 11.64C17.8044 11.64 17.5378 11.71 17.2911 11.85C17.0444 11.99 16.8444 12.2 16.6911 12.48C16.5378 12.76 16.4611 13.1067 16.4611 13.52C16.4611 13.9333 16.5378 14.28 16.6911 14.56C16.8444 14.84 17.0411 15.05 17.2811 15.19C17.5278 15.33 17.7911 15.4 18.0711 15.4ZM23.4742 14.44C23.1942 14.44 22.9376 14.4033 22.7042 14.33L22.2042 14.8C22.2776 14.8533 22.3676 14.9 22.4742 14.94C22.5876 14.9733 22.7476 15.0067 22.9542 15.04C23.1609 15.0667 23.4509 15.0967 23.8242 15.13C24.4909 15.1767 24.9676 15.33 25.2542 15.59C25.5409 15.85 25.6842 16.19 25.6842 16.61C25.6842 16.8967 25.6042 17.17 25.4442 17.43C25.2909 17.69 25.0509 17.9033 24.7242 18.07C24.4042 18.2367 23.9909 18.32 23.4842 18.32C23.0376 18.32 22.6409 18.26 22.2942 18.14C21.9476 18.0267 21.6776 17.85 21.4842 17.61C21.2909 17.3767 21.1942 17.08 21.1942 16.72C21.1942 16.5333 21.2442 16.33 21.3442 16.11C21.4442 15.8967 21.6309 15.6933 21.9042 15.5C21.7576 15.44 21.6309 15.3767 21.5242 15.31C21.4242 15.2367 21.3309 15.1567 21.2442 15.07V14.84L22.0942 14C21.7009 13.6667 21.5042 13.2267 21.5042 12.68C21.5042 12.3533 21.5809 12.0567 21.7342 11.79C21.8876 11.5233 22.1109 11.3133 22.4042 11.16C22.6976 11 23.0542 10.92 23.4742 10.92C23.7609 10.92 24.0209 10.96 24.2542 11.04H26.0842V11.67L25.1542 11.71C25.3476 11.99 25.4442 12.3133 25.4442 12.68C25.4442 13.0067 25.3642 13.3033 25.2042 13.57C25.0509 13.8367 24.8276 14.05 24.5342 14.21C24.2476 14.3633 23.8942 14.44 23.4742 14.44ZM23.4742 13.75C23.8276 13.75 24.1076 13.66 24.3142 13.48C24.5276 13.2933 24.6342 13.0267 24.6342 12.68C24.6342 12.34 24.5276 12.08 24.3142 11.9C24.1076 11.7133 23.8276 11.62 23.4742 11.62C23.1142 11.62 22.8276 11.7133 22.6142 11.9C22.4076 12.08 22.3042 12.34 22.3042 12.68C22.3042 13.0267 22.4076 13.2933 22.6142 13.48C22.8276 13.66 23.1142 13.75 23.4742 13.75ZM22.0142 16.64C22.0142 16.9733 22.1542 17.22 22.4342 17.38C22.7142 17.5467 23.0642 17.63 23.4842 17.63C23.8976 17.63 24.2276 17.54 24.4742 17.36C24.7276 17.18 24.8542 16.94 24.8542 16.64C24.8542 16.4267 24.7676 16.24 24.5942 16.08C24.4209 15.9267 24.1009 15.8367 23.6342 15.81C23.2676 15.7833 22.9509 15.75 22.6842 15.71C22.4109 15.8567 22.2309 16.0133 22.1442 16.18C22.0576 16.3533 22.0142 16.5067 22.0142 16.64ZM28.9318 16.12C28.3385 16.12 27.8451 15.97 27.4518 15.67C27.0585 15.37 26.8285 14.9633 26.7618 14.45H27.6218C27.6751 14.71 27.8118 14.9367 28.0318 15.13C28.2585 15.3167 28.5618 15.41 28.9418 15.41C29.2951 15.41 29.5551 15.3367 29.7218 15.19C29.8885 15.0367 29.9718 14.8567 29.9718 14.65C29.9718 14.35 29.8618 14.15 29.6418 14.05C29.4285 13.95 29.1251 13.86 28.7318 13.78C28.4651 13.7267 28.1985 13.65 27.9318 13.55C27.6651 13.45 27.4418 13.31 27.2618 13.13C27.0818 12.9433 26.9918 12.7 26.9918 12.4C26.9918 11.9667 27.1518 11.6133 27.4718 11.34C27.7985 11.06 28.2385 10.92 28.7918 10.92C29.3185 10.92 29.7485 11.0533 30.0818 11.32C30.4218 11.58 30.6185 11.9533 30.6718 12.44H29.8418C29.8085 12.1867 29.6985 11.99 29.5118 11.85C29.3318 11.7033 29.0885 11.63 28.7818 11.63C28.4818 11.63 28.2485 11.6933 28.0818 11.82C27.9218 11.9467 27.8418 12.1133 27.8418 12.32C27.8418 12.52 27.9451 12.6767 28.1518 12.79C28.3651 12.9033 28.6518 13 29.0118 13.08C29.3185 13.1467 29.6085 13.23 29.8818 13.33C30.1618 13.4233 30.3885 13.5667 30.5618 13.76C30.7418 13.9467 30.8318 14.22 30.8318 14.58C30.8385 15.0267 30.6685 15.3967 30.3218 15.69C29.9818 15.9767 29.5185 16.12 28.9318 16.12Z" fill="black"/>
</svg>
