<svg width="60" height="24" viewBox="0 0 60 24" fill="none" xmlns="http://www.w3.org/2000/svg">
<rect width="60" height="24" rx="6" fill="#FFE5D3"/>
<path d="M6.96656 16V9H11.2966V9.69H7.80656V12.13H10.9966V12.81H7.80656V15.31H11.2966V16H6.96656ZM14.8111 16.12C14.3178 16.12 13.8844 16.0067 13.5111 15.78C13.1444 15.5533 12.8578 15.2433 12.6511 14.85C12.4511 14.4567 12.3511 14.01 12.3511 13.51C12.3511 13.01 12.4544 12.5667 12.6611 12.18C12.8678 11.7867 13.1544 11.48 13.5211 11.26C13.8878 11.0333 14.3211 10.92 14.8211 10.92C15.2278 10.92 15.5878 11.0033 15.9011 11.17C16.2144 11.3367 16.4578 11.57 16.6311 11.87V8.8H17.4711V16H16.7111L16.6311 15.18C16.4711 15.42 16.2411 15.6367 15.9411 15.83C15.6411 16.0233 15.2644 16.12 14.8111 16.12ZM14.9011 15.39C15.2344 15.39 15.5278 15.3133 15.7811 15.16C16.0411 15 16.2411 14.78 16.3811 14.5C16.5278 14.22 16.6011 13.8933 16.6011 13.52C16.6011 13.1467 16.5278 12.82 16.3811 12.54C16.2411 12.26 16.0411 12.0433 15.7811 11.89C15.5278 11.73 15.2344 11.65 14.9011 11.65C14.5744 11.65 14.2811 11.73 14.0211 11.89C13.7678 12.0433 13.5678 12.26 13.4211 12.54C13.2811 12.82 13.2111 13.1467 13.2111 13.52C13.2111 13.8933 13.2811 14.22 13.4211 14.5C13.5678 14.78 13.7678 15 14.0211 15.16C14.2811 15.3133 14.5744 15.39 14.9011 15.39ZM19.3504 9.94C19.1837 9.94 19.0437 9.88667 18.9304 9.78C18.8237 9.66667 18.7704 9.52667 18.7704 9.36C18.7704 9.2 18.8237 9.06667 18.9304 8.96C19.0437 8.85333 19.1837 8.8 19.3504 8.8C19.5104 8.8 19.6471 8.85333 19.7604 8.96C19.8737 9.06667 19.9304 9.2 19.9304 9.36C19.9304 9.52667 19.8737 9.66667 19.7604 9.78C19.6471 9.88667 19.5104 9.94 19.3504 9.94ZM18.9304 16V11.04H19.7704V16H18.9304ZM21.233 16V11.04H21.993L22.043 11.93C22.203 11.6167 22.433 11.37 22.733 11.19C23.033 11.01 23.373 10.92 23.753 10.92C24.3396 10.92 24.8063 11.1 25.153 11.46C25.5063 11.8133 25.683 12.36 25.683 13.1V16H24.843V13.19C24.843 12.1567 24.4163 11.64 23.563 11.64C23.1363 11.64 22.7796 11.7967 22.493 12.11C22.213 12.4167 22.073 12.8567 22.073 13.43V16H21.233ZM29.6056 16.12C29.199 16.12 28.8356 16.0367 28.5156 15.87C28.2023 15.7033 27.9623 15.47 27.7956 15.17L27.7156 16H26.9556V8.8H27.7956V11.86C27.9556 11.62 28.1823 11.4033 28.4756 11.21C28.7756 11.0167 29.1556 10.92 29.6156 10.92C30.109 10.92 30.539 11.0333 30.9056 11.26C31.2723 11.4867 31.5556 11.7967 31.7556 12.19C31.9623 12.5833 32.0656 13.03 32.0656 13.53C32.0656 14.03 31.9623 14.4767 31.7556 14.87C31.5556 15.2567 31.269 15.5633 30.8956 15.79C30.529 16.01 30.099 16.12 29.6056 16.12ZM29.5156 15.39C29.849 15.39 30.1423 15.3133 30.3956 15.16C30.649 15 30.849 14.78 30.9956 14.5C31.1423 14.22 31.2156 13.8933 31.2156 13.52C31.2156 13.1467 31.1423 12.82 30.9956 12.54C30.849 12.26 30.649 12.0433 30.3956 11.89C30.1423 11.73 29.849 11.65 29.5156 11.65C29.1823 11.65 28.889 11.73 28.6356 11.89C28.3823 12.0433 28.1823 12.26 28.0356 12.54C27.889 12.82 27.8156 13.1467 27.8156 13.52C27.8156 13.8933 27.889 14.22 28.0356 14.5C28.1823 14.78 28.3823 15 28.6356 15.16C28.889 15.3133 29.1823 15.39 29.5156 15.39ZM35.0449 16.12C34.4583 16.12 33.9916 15.9433 33.6449 15.59C33.2983 15.23 33.1249 14.68 33.1249 13.94V11.04H33.9649V13.85C33.9649 14.8833 34.3883 15.4 35.2349 15.4C35.6683 15.4 36.0249 15.2467 36.3049 14.94C36.5916 14.6267 36.7349 14.1833 36.7349 13.61V11.04H37.5749V16H36.8149L36.7549 15.11C36.6016 15.4233 36.3716 15.67 36.0649 15.85C35.7649 16.03 35.4249 16.12 35.0449 16.12ZM38.9576 16V11.04H39.7176L39.7876 11.99C39.9409 11.6633 40.1742 11.4033 40.4876 11.21C40.8009 11.0167 41.1876 10.92 41.6476 10.92V11.8H41.4176C41.1242 11.8 40.8542 11.8533 40.6076 11.96C40.3609 12.06 40.1642 12.2333 40.0176 12.48C39.8709 12.7267 39.7976 13.0667 39.7976 13.5V16H38.9576ZM44.4332 14.44C44.1532 14.44 43.8965 14.4033 43.6632 14.33L43.1632 14.8C43.2365 14.8533 43.3265 14.9 43.4332 14.94C43.5465 14.9733 43.7065 15.0067 43.9132 15.04C44.1199 15.0667 44.4099 15.0967 44.7832 15.13C45.4499 15.1767 45.9265 15.33 46.2132 15.59C46.4999 15.85 46.6432 16.19 46.6432 16.61C46.6432 16.8967 46.5632 17.17 46.4032 17.43C46.2499 17.69 46.0099 17.9033 45.6832 18.07C45.3632 18.2367 44.9499 18.32 44.4432 18.32C43.9965 18.32 43.5999 18.26 43.2532 18.14C42.9065 18.0267 42.6365 17.85 42.4432 17.61C42.2499 17.3767 42.1532 17.08 42.1532 16.72C42.1532 16.5333 42.2032 16.33 42.3032 16.11C42.4032 15.8967 42.5899 15.6933 42.8632 15.5C42.7165 15.44 42.5899 15.3767 42.4832 15.31C42.3832 15.2367 42.2899 15.1567 42.2032 15.07V14.84L43.0532 14C42.6599 13.6667 42.4632 13.2267 42.4632 12.68C42.4632 12.3533 42.5399 12.0567 42.6932 11.79C42.8465 11.5233 43.0699 11.3133 43.3632 11.16C43.6565 11 44.0132 10.92 44.4332 10.92C44.7199 10.92 44.9799 10.96 45.2132 11.04H47.0432V11.67L46.1132 11.71C46.3065 11.99 46.4032 12.3133 46.4032 12.68C46.4032 13.0067 46.3232 13.3033 46.1632 13.57C46.0099 13.8367 45.7865 14.05 45.4932 14.21C45.2065 14.3633 44.8532 14.44 44.4332 14.44ZM44.4332 13.75C44.7865 13.75 45.0665 13.66 45.2732 13.48C45.4865 13.2933 45.5932 13.0267 45.5932 12.68C45.5932 12.34 45.4865 12.08 45.2732 11.9C45.0665 11.7133 44.7865 11.62 44.4332 11.62C44.0732 11.62 43.7865 11.7133 43.5732 11.9C43.3665 12.08 43.2632 12.34 43.2632 12.68C43.2632 13.0267 43.3665 13.2933 43.5732 13.48C43.7865 13.66 44.0732 13.75 44.4332 13.75ZM42.9732 16.64C42.9732 16.9733 43.1132 17.22 43.3932 17.38C43.6732 17.5467 44.0232 17.63 44.4432 17.63C44.8565 17.63 45.1865 17.54 45.4332 17.36C45.6865 17.18 45.8132 16.94 45.8132 16.64C45.8132 16.4267 45.7265 16.24 45.5532 16.08C45.3799 15.9267 45.0599 15.8367 44.5932 15.81C44.2265 15.7833 43.9099 15.75 43.6432 15.71C43.3699 15.8567 43.1899 16.0133 43.1032 16.18C43.0165 16.3533 42.9732 16.5067 42.9732 16.64ZM47.9908 16V8.8H48.8308V11.89C48.9974 11.5833 49.2341 11.3467 49.5408 11.18C49.8474 11.0067 50.1808 10.92 50.5408 10.92C51.1141 10.92 51.5741 11.1 51.9208 11.46C52.2674 11.8133 52.4408 12.36 52.4408 13.1V16H51.6108V13.19C51.6108 12.1567 51.1941 11.64 50.3608 11.64C49.9274 11.64 49.5641 11.7967 49.2708 12.11C48.9774 12.4167 48.8308 12.8567 48.8308 13.43V16H47.9908Z" fill="black"/>
</svg>
