<svg width="60" height="24" viewBox="0 0 60 24" fill="none" xmlns="http://www.w3.org/2000/svg">
<rect width="60" height="24" rx="6" fill="#FFE5D3"/>
<path d="M13.9805 16.12C13.3271 16.12 12.7538 15.97 12.2605 15.67C11.7671 15.3633 11.3838 14.94 11.1105 14.4C10.8371 13.8533 10.7005 13.2233 10.7005 12.51C10.7005 11.7967 10.8371 11.1667 11.1105 10.62C11.3905 10.0733 11.7838 9.64667 12.2905 9.34C12.8038 9.03333 13.4071 8.88 14.1005 8.88C14.8871 8.88 15.5405 9.07 16.0605 9.45C16.5871 9.83 16.9271 10.3533 17.0805 11.02H16.1105C16.0171 10.6 15.7938 10.2667 15.4405 10.02C15.0938 9.77333 14.6471 9.65 14.1005 9.65C13.5871 9.65 13.1405 9.76667 12.7605 10C12.3805 10.2267 12.0838 10.5533 11.8705 10.98C11.6638 11.4067 11.5605 11.9167 11.5605 12.51C11.5605 13.1033 11.6638 13.6133 11.8705 14.04C12.0771 14.4667 12.3638 14.7967 12.7305 15.03C13.0971 15.2567 13.5238 15.37 14.0105 15.37C14.7571 15.37 15.3205 15.1533 15.7005 14.72C16.0805 14.28 16.2971 13.68 16.3505 12.92H14.3305V12.26H17.2105V16H16.4405L16.3705 14.85C16.1171 15.2567 15.8071 15.57 15.4405 15.79C15.0738 16.01 14.5871 16.12 13.9805 16.12ZM18.4888 16V8.8H19.3288V16H18.4888ZM22.3556 16.12C21.9423 16.12 21.599 16.05 21.3256 15.91C21.0523 15.77 20.849 15.5833 20.7156 15.35C20.5823 15.1167 20.5156 14.8633 20.5156 14.59C20.5156 14.0833 20.709 13.6933 21.0956 13.42C21.4823 13.1467 22.009 13.01 22.6756 13.01H24.0156V12.95C24.0156 12.5167 23.9023 12.19 23.6756 11.97C23.449 11.7433 23.1456 11.63 22.7656 11.63C22.439 11.63 22.1556 11.7133 21.9156 11.88C21.6823 12.04 21.5356 12.2767 21.4756 12.59H20.6156C20.649 12.23 20.769 11.9267 20.9756 11.68C21.189 11.4333 21.4523 11.2467 21.7656 11.12C22.079 10.9867 22.4123 10.92 22.7656 10.92C23.459 10.92 23.979 11.1067 24.3256 11.48C24.679 11.8467 24.8556 12.3367 24.8556 12.95V16H24.1056L24.0556 15.11C23.9156 15.39 23.709 15.63 23.4356 15.83C23.169 16.0233 22.809 16.12 22.3556 16.12ZM22.4856 15.41C22.8056 15.41 23.079 15.3267 23.3056 15.16C23.539 14.9933 23.7156 14.7767 23.8356 14.51C23.9556 14.2433 24.0156 13.9633 24.0156 13.67V13.66H22.7456C22.2523 13.66 21.9023 13.7467 21.6956 13.92C21.4956 14.0867 21.3956 14.2967 21.3956 14.55C21.3956 14.81 21.489 15.02 21.6756 15.18C21.869 15.3333 22.139 15.41 22.4856 15.41ZM28.0158 16.12C27.4224 16.12 26.9291 15.97 26.5358 15.67C26.1424 15.37 25.9124 14.9633 25.8458 14.45H26.7058C26.7591 14.71 26.8958 14.9367 27.1158 15.13C27.3424 15.3167 27.6458 15.41 28.0258 15.41C28.3791 15.41 28.6391 15.3367 28.8058 15.19C28.9724 15.0367 29.0558 14.8567 29.0558 14.65C29.0558 14.35 28.9458 14.15 28.7258 14.05C28.5124 13.95 28.2091 13.86 27.8158 13.78C27.5491 13.7267 27.2824 13.65 27.0158 13.55C26.7491 13.45 26.5258 13.31 26.3458 13.13C26.1658 12.9433 26.0758 12.7 26.0758 12.4C26.0758 11.9667 26.2358 11.6133 26.5558 11.34C26.8824 11.06 27.3224 10.92 27.8758 10.92C28.4024 10.92 28.8324 11.0533 29.1658 11.32C29.5058 11.58 29.7024 11.9533 29.7558 12.44H28.9258C28.8924 12.1867 28.7824 11.99 28.5958 11.85C28.4158 11.7033 28.1724 11.63 27.8658 11.63C27.5658 11.63 27.3324 11.6933 27.1658 11.82C27.0058 11.9467 26.9258 12.1133 26.9258 12.32C26.9258 12.52 27.0291 12.6767 27.2358 12.79C27.4491 12.9033 27.7358 13 28.0958 13.08C28.4024 13.1467 28.6924 13.23 28.9658 13.33C29.2458 13.4233 29.4724 13.5667 29.6458 13.76C29.8258 13.9467 29.9158 14.22 29.9158 14.58C29.9224 15.0267 29.7524 15.3967 29.4058 15.69C29.0658 15.9767 28.6024 16.12 28.0158 16.12ZM33.0758 14.44C32.7958 14.44 32.5391 14.4033 32.3058 14.33L31.8058 14.8C31.8791 14.8533 31.9691 14.9 32.0758 14.94C32.1891 14.9733 32.3491 15.0067 32.5558 15.04C32.7624 15.0667 33.0524 15.0967 33.4258 15.13C34.0924 15.1767 34.5691 15.33 34.8558 15.59C35.1424 15.85 35.2858 16.19 35.2858 16.61C35.2858 16.8967 35.2058 17.17 35.0458 17.43C34.8924 17.69 34.6524 17.9033 34.3258 18.07C34.0058 18.2367 33.5924 18.32 33.0858 18.32C32.6391 18.32 32.2424 18.26 31.8958 18.14C31.5491 18.0267 31.2791 17.85 31.0858 17.61C30.8924 17.3767 30.7958 17.08 30.7958 16.72C30.7958 16.5333 30.8458 16.33 30.9458 16.11C31.0458 15.8967 31.2324 15.6933 31.5058 15.5C31.3591 15.44 31.2324 15.3767 31.1258 15.31C31.0258 15.2367 30.9324 15.1567 30.8458 15.07V14.84L31.6958 14C31.3024 13.6667 31.1058 13.2267 31.1058 12.68C31.1058 12.3533 31.1824 12.0567 31.3358 11.79C31.4891 11.5233 31.7124 11.3133 32.0058 11.16C32.2991 11 32.6558 10.92 33.0758 10.92C33.3624 10.92 33.6224 10.96 33.8558 11.04H35.6858V11.67L34.7558 11.71C34.9491 11.99 35.0458 12.3133 35.0458 12.68C35.0458 13.0067 34.9658 13.3033 34.8058 13.57C34.6524 13.8367 34.4291 14.05 34.1358 14.21C33.8491 14.3633 33.4958 14.44 33.0758 14.44ZM33.0758 13.75C33.4291 13.75 33.7091 13.66 33.9158 13.48C34.1291 13.2933 34.2358 13.0267 34.2358 12.68C34.2358 12.34 34.1291 12.08 33.9158 11.9C33.7091 11.7133 33.4291 11.62 33.0758 11.62C32.7158 11.62 32.4291 11.7133 32.2158 11.9C32.0091 12.08 31.9058 12.34 31.9058 12.68C31.9058 13.0267 32.0091 13.2933 32.2158 13.48C32.4291 13.66 32.7158 13.75 33.0758 13.75ZM31.6158 16.64C31.6158 16.9733 31.7558 17.22 32.0358 17.38C32.3158 17.5467 32.6658 17.63 33.0858 17.63C33.4991 17.63 33.8291 17.54 34.0758 17.36C34.3291 17.18 34.4558 16.94 34.4558 16.64C34.4558 16.4267 34.3691 16.24 34.1958 16.08C34.0224 15.9267 33.7024 15.8367 33.2358 15.81C32.8691 15.7833 32.5524 15.75 32.2858 15.71C32.0124 15.8567 31.8324 16.0133 31.7458 16.18C31.6591 16.3533 31.6158 16.5067 31.6158 16.64ZM38.698 16.12C38.2314 16.12 37.8114 16.0133 37.438 15.8C37.0647 15.5867 36.768 15.2867 36.548 14.9C36.3347 14.5067 36.228 14.0467 36.228 13.52C36.228 12.9933 36.338 12.5367 36.558 12.15C36.778 11.7567 37.0747 11.4533 37.448 11.24C37.828 11.0267 38.2514 10.92 38.718 10.92C39.1847 10.92 39.6047 11.0267 39.978 11.24C40.3514 11.4533 40.6447 11.7567 40.858 12.15C41.078 12.5367 41.188 12.9933 41.188 13.52C41.188 14.0467 41.078 14.5067 40.858 14.9C40.638 15.2867 40.338 15.5867 39.958 15.8C39.5847 16.0133 39.1647 16.12 38.698 16.12ZM38.698 15.4C38.9847 15.4 39.2514 15.33 39.498 15.19C39.7447 15.05 39.9447 14.84 40.098 14.56C40.2514 14.28 40.328 13.9333 40.328 13.52C40.328 13.1067 40.2514 12.76 40.098 12.48C39.9514 12.2 39.7547 11.99 39.508 11.85C39.2614 11.71 38.998 11.64 38.718 11.64C38.4314 11.64 38.1647 11.71 37.918 11.85C37.6714 11.99 37.4714 12.2 37.318 12.48C37.1647 12.76 37.088 13.1067 37.088 13.52C37.088 13.9333 37.1647 14.28 37.318 14.56C37.4714 14.84 37.668 15.05 37.908 15.19C38.1547 15.33 38.418 15.4 38.698 15.4ZM43.1705 16L41.7205 11.04H42.5605L43.6105 14.93L44.7705 11.04H45.7205L46.8905 14.93L47.9305 11.04H48.7805L47.3305 16H46.4705L45.2505 11.91L44.0305 16H43.1705Z" fill="black"/>
</svg>
