<svg width="50" height="24" viewBox="0 0 50 24" fill="none" xmlns="http://www.w3.org/2000/svg">
<rect width="50" height="24" rx="6" fill="#E2FBD7"/>
<path d="M14.625 16.12C13.9717 16.12 13.3983 15.97 12.905 15.67C12.4117 15.3633 12.0283 14.94 11.755 14.4C11.4817 13.8533 11.345 13.2233 11.345 12.51C11.345 11.7967 11.4817 11.1667 11.755 10.62C12.035 10.0733 12.4283 9.64667 12.935 9.34C13.4483 9.03333 14.0517 8.88 14.745 8.88C15.5317 8.88 16.185 9.07 16.705 9.45C17.2317 9.83 17.5717 10.3533 17.725 11.02H16.755C16.6617 10.6 16.4383 10.2667 16.085 10.02C15.7383 9.77333 15.2917 9.65 14.745 9.65C14.2317 9.65 13.785 9.76667 13.405 10C13.025 10.2267 12.7283 10.5533 12.515 10.98C12.3083 11.4067 12.205 11.9167 12.205 12.51C12.205 13.1033 12.3083 13.6133 12.515 14.04C12.7217 14.4667 13.0083 14.7967 13.375 15.03C13.7417 15.2567 14.1683 15.37 14.655 15.37C15.4017 15.37 15.965 15.1533 16.345 14.72C16.725 14.28 16.9417 13.68 16.995 12.92H14.975V12.26H17.855V16H17.085L17.015 14.85C16.7617 15.2567 16.4517 15.57 16.085 15.79C15.7183 16.01 15.2317 16.12 14.625 16.12ZM19.1334 16V11.04H19.8934L19.9634 11.99C20.1167 11.6633 20.35 11.4033 20.6634 11.21C20.9767 11.0167 21.3634 10.92 21.8234 10.92V11.8H21.5934C21.3 11.8 21.03 11.8533 20.7834 11.96C20.5367 12.06 20.34 12.2333 20.1934 12.48C20.0467 12.7267 19.9734 13.0667 19.9734 13.5V16H19.1334ZM24.8106 16.12C24.3373 16.12 23.9173 16.0133 23.5506 15.8C23.184 15.58 22.894 15.2767 22.6806 14.89C22.474 14.5033 22.3706 14.0467 22.3706 13.52C22.3706 13 22.474 12.5467 22.6806 12.16C22.8873 11.7667 23.174 11.4633 23.5406 11.25C23.914 11.03 24.344 10.92 24.8306 10.92C25.3106 10.92 25.724 11.03 26.0706 11.25C26.424 11.4633 26.694 11.7467 26.8806 12.1C27.0673 12.4533 27.1606 12.8333 27.1606 13.24C27.1606 13.3133 27.1573 13.3867 27.1506 13.46C27.1506 13.5333 27.1506 13.6167 27.1506 13.71H23.2006C23.2206 14.09 23.3073 14.4067 23.4606 14.66C23.6206 14.9067 23.8173 15.0933 24.0506 15.22C24.2906 15.3467 24.544 15.41 24.8106 15.41C25.1573 15.41 25.4473 15.33 25.6806 15.17C25.914 15.01 26.084 14.7933 26.1906 14.52H27.0206C26.8873 14.98 26.6306 15.3633 26.2506 15.67C25.8773 15.97 25.3973 16.12 24.8106 16.12ZM24.8106 11.63C24.4106 11.63 24.054 11.7533 23.7406 12C23.434 12.24 23.2573 12.5933 23.2106 13.06H26.3306C26.3106 12.6133 26.1573 12.2633 25.8706 12.01C25.584 11.7567 25.2306 11.63 24.8106 11.63ZM30.504 16.12C30.0307 16.12 29.6107 16.0133 29.244 15.8C28.8773 15.58 28.5873 15.2767 28.374 14.89C28.1673 14.5033 28.064 14.0467 28.064 13.52C28.064 13 28.1673 12.5467 28.374 12.16C28.5807 11.7667 28.8673 11.4633 29.234 11.25C29.6073 11.03 30.0373 10.92 30.524 10.92C31.004 10.92 31.4173 11.03 31.764 11.25C32.1173 11.4633 32.3873 11.7467 32.574 12.1C32.7607 12.4533 32.854 12.8333 32.854 13.24C32.854 13.3133 32.8507 13.3867 32.844 13.46C32.844 13.5333 32.844 13.6167 32.844 13.71H28.894C28.914 14.09 29.0007 14.4067 29.154 14.66C29.314 14.9067 29.5107 15.0933 29.744 15.22C29.984 15.3467 30.2373 15.41 30.504 15.41C30.8507 15.41 31.1407 15.33 31.374 15.17C31.6073 15.01 31.7773 14.7933 31.884 14.52H32.714C32.5807 14.98 32.324 15.3633 31.944 15.67C31.5707 15.97 31.0907 16.12 30.504 16.12ZM30.504 11.63C30.104 11.63 29.7473 11.7533 29.434 12C29.1273 12.24 28.9507 12.5933 28.904 13.06H32.024C32.004 12.6133 31.8507 12.2633 31.564 12.01C31.2773 11.7567 30.924 11.63 30.504 11.63ZM33.9673 16V11.04H34.7273L34.7773 11.93C34.9373 11.6167 35.1673 11.37 35.4673 11.19C35.7673 11.01 36.1073 10.92 36.4873 10.92C37.074 10.92 37.5407 11.1 37.8873 11.46C38.2407 11.8133 38.4173 12.36 38.4173 13.1V16H37.5773V13.19C37.5773 12.1567 37.1507 11.64 36.2973 11.64C35.8707 11.64 35.514 11.7967 35.2273 12.11C34.9473 12.4167 34.8073 12.8567 34.8073 13.43V16H33.9673Z" fill="black"/>
</svg>
