<svg width="40" height="24" viewBox="0 0 40 24" fill="none" xmlns="http://www.w3.org/2000/svg">
<rect width="40" height="24" rx="6" fill="#CCF8FE"/>
<path d="M5.79957 16V9H6.63957V12.09H10.2696V9H11.1096V16H10.2696V12.78H6.63957V16H5.79957ZM14.1867 16.12C13.7733 16.12 13.43 16.05 13.1567 15.91C12.8833 15.77 12.68 15.5833 12.5467 15.35C12.4133 15.1167 12.3467 14.8633 12.3467 14.59C12.3467 14.0833 12.54 13.6933 12.9267 13.42C13.3133 13.1467 13.84 13.01 14.5067 13.01H15.8467V12.95C15.8467 12.5167 15.7333 12.19 15.5067 11.97C15.28 11.7433 14.9767 11.63 14.5967 11.63C14.27 11.63 13.9867 11.7133 13.7467 11.88C13.5133 12.04 13.3667 12.2767 13.3067 12.59H12.4467C12.48 12.23 12.6 11.9267 12.8067 11.68C13.02 11.4333 13.2833 11.2467 13.5967 11.12C13.91 10.9867 14.2433 10.92 14.5967 10.92C15.29 10.92 15.81 11.1067 16.1567 11.48C16.51 11.8467 16.6867 12.3367 16.6867 12.95V16H15.9367L15.8867 15.11C15.7467 15.39 15.54 15.63 15.2667 15.83C15 16.0233 14.64 16.12 14.1867 16.12ZM14.3167 15.41C14.6367 15.41 14.91 15.3267 15.1367 15.16C15.37 14.9933 15.5467 14.7767 15.6667 14.51C15.7867 14.2433 15.8467 13.9633 15.8467 13.67V13.66H14.5767C14.0833 13.66 13.7333 13.7467 13.5267 13.92C13.3267 14.0867 13.2267 14.2967 13.2267 14.55C13.2267 14.81 13.32 15.02 13.5067 15.18C13.7 15.3333 13.97 15.41 14.3167 15.41ZM17.9468 16V11.04H18.7068L18.7768 11.99C18.9302 11.6633 19.1635 11.4033 19.4768 11.21C19.7902 11.0167 20.1768 10.92 20.6368 10.92V11.8H20.4068C20.1135 11.8 19.8435 11.8533 19.5968 11.96C19.3502 12.06 19.1535 12.2333 19.0068 12.48C18.8602 12.7267 18.7868 13.0667 18.7868 13.5V16H17.9468ZM23.2296 16.12C22.8163 16.12 22.473 16.05 22.1996 15.91C21.9263 15.77 21.723 15.5833 21.5896 15.35C21.4563 15.1167 21.3896 14.8633 21.3896 14.59C21.3896 14.0833 21.583 13.6933 21.9696 13.42C22.3563 13.1467 22.883 13.01 23.5496 13.01H24.8896V12.95C24.8896 12.5167 24.7763 12.19 24.5496 11.97C24.323 11.7433 24.0196 11.63 23.6396 11.63C23.313 11.63 23.0296 11.7133 22.7896 11.88C22.5563 12.04 22.4096 12.2767 22.3496 12.59H21.4896C21.523 12.23 21.643 11.9267 21.8496 11.68C22.063 11.4333 22.3263 11.2467 22.6396 11.12C22.953 10.9867 23.2863 10.92 23.6396 10.92C24.333 10.92 24.853 11.1067 25.1996 11.48C25.553 11.8467 25.7296 12.3367 25.7296 12.95V16H24.9796L24.9296 15.11C24.7896 15.39 24.583 15.63 24.3096 15.83C24.043 16.0233 23.683 16.12 23.2296 16.12ZM23.3596 15.41C23.6796 15.41 23.953 15.3267 24.1796 15.16C24.413 14.9933 24.5896 14.7767 24.7096 14.51C24.8296 14.2433 24.8896 13.9633 24.8896 13.67V13.66H23.6196C23.1263 13.66 22.7763 13.7467 22.5696 13.92C22.3696 14.0867 22.2696 14.2967 22.2696 14.55C22.2696 14.81 22.363 15.02 22.5496 15.18C22.743 15.3333 23.013 15.41 23.3596 15.41ZM26.9898 16V11.04H27.7498L27.8198 11.99C27.9731 11.6633 28.2065 11.4033 28.5198 11.21C28.8331 11.0167 29.2198 10.92 29.6798 10.92V11.8H29.4498C29.1565 11.8 28.8865 11.8533 28.6398 11.96C28.3931 12.06 28.1965 12.2333 28.0498 12.48C27.9031 12.7267 27.8298 13.0667 27.8298 13.5V16H26.9898ZM32.6671 16.12C32.1937 16.12 31.7737 16.0133 31.4071 15.8C31.0404 15.58 30.7504 15.2767 30.5371 14.89C30.3304 14.5033 30.2271 14.0467 30.2271 13.52C30.2271 13 30.3304 12.5467 30.5371 12.16C30.7437 11.7667 31.0304 11.4633 31.3971 11.25C31.7704 11.03 32.2004 10.92 32.6871 10.92C33.1671 10.92 33.5804 11.03 33.9271 11.25C34.2804 11.4633 34.5504 11.7467 34.7371 12.1C34.9237 12.4533 35.0171 12.8333 35.0171 13.24C35.0171 13.3133 35.0137 13.3867 35.0071 13.46C35.0071 13.5333 35.0071 13.6167 35.0071 13.71H31.0571C31.0771 14.09 31.1637 14.4067 31.3171 14.66C31.4771 14.9067 31.6737 15.0933 31.9071 15.22C32.1471 15.3467 32.4004 15.41 32.6671 15.41C33.0137 15.41 33.3037 15.33 33.5371 15.17C33.7704 15.01 33.9404 14.7933 34.0471 14.52H34.8771C34.7437 14.98 34.4871 15.3633 34.1071 15.67C33.7337 15.97 33.2537 16.12 32.6671 16.12ZM32.6671 11.63C32.2671 11.63 31.9104 11.7533 31.5971 12C31.2904 12.24 31.1137 12.5933 31.0671 13.06H34.1871C34.1671 12.6133 34.0137 12.2633 33.7271 12.01C33.4404 11.7567 33.0871 11.63 32.6671 11.63Z" fill="black"/>
</svg>
