<svg width="50" height="24" viewBox="0 0 50 24" fill="none" xmlns="http://www.w3.org/2000/svg">
<rect width="50" height="24" rx="6" fill="#DAD7FE"/>
<path d="M9.18824 16V9H10.0282V12.09H13.6582V9H14.4982V16H13.6582V12.78H10.0282V16H9.18824ZM17.7354 16.12C17.1487 16.12 16.682 15.9433 16.3354 15.59C15.9887 15.23 15.8154 14.68 15.8154 13.94V11.04H16.6554V13.85C16.6554 14.8833 17.0787 15.4 17.9254 15.4C18.3587 15.4 18.7154 15.2467 18.9954 14.94C19.282 14.6267 19.4254 14.1833 19.4254 13.61V11.04H20.2654V16H19.5054L19.4454 15.11C19.292 15.4233 19.062 15.67 18.7554 15.85C18.4554 16.03 18.1154 16.12 17.7354 16.12ZM24.298 16.12C23.8913 16.12 23.528 16.0367 23.208 15.87C22.8947 15.7033 22.6547 15.47 22.488 15.17L22.408 16H21.648V8.8H22.488V11.86C22.648 11.62 22.8747 11.4033 23.168 11.21C23.468 11.0167 23.848 10.92 24.308 10.92C24.8013 10.92 25.2313 11.0333 25.598 11.26C25.9647 11.4867 26.248 11.7967 26.448 12.19C26.6547 12.5833 26.758 13.03 26.758 13.53C26.758 14.03 26.6547 14.4767 26.448 14.87C26.248 15.2567 25.9613 15.5633 25.588 15.79C25.2213 16.01 24.7913 16.12 24.298 16.12ZM24.208 15.39C24.5413 15.39 24.8347 15.3133 25.088 15.16C25.3413 15 25.5413 14.78 25.688 14.5C25.8347 14.22 25.908 13.8933 25.908 13.52C25.908 13.1467 25.8347 12.82 25.688 12.54C25.5413 12.26 25.3413 12.0433 25.088 11.89C24.8347 11.73 24.5413 11.65 24.208 11.65C23.8747 11.65 23.5813 11.73 23.328 11.89C23.0747 12.0433 22.8747 12.26 22.728 12.54C22.5813 12.82 22.508 13.1467 22.508 13.52C22.508 13.8933 22.5813 14.22 22.728 14.5C22.8747 14.78 23.0747 15 23.328 15.16C23.5813 15.3133 23.8747 15.39 24.208 15.39ZM30.5773 16.12C30.1706 16.12 29.8073 16.0367 29.4873 15.87C29.174 15.7033 28.934 15.47 28.7673 15.17L28.6873 16H27.9273V8.8H28.7673V11.86C28.9273 11.62 29.154 11.4033 29.4473 11.21C29.7473 11.0167 30.1273 10.92 30.5873 10.92C31.0806 10.92 31.5106 11.0333 31.8773 11.26C32.244 11.4867 32.5273 11.7967 32.7273 12.19C32.934 12.5833 33.0373 13.03 33.0373 13.53C33.0373 14.03 32.934 14.4767 32.7273 14.87C32.5273 15.2567 32.2406 15.5633 31.8673 15.79C31.5006 16.01 31.0706 16.12 30.5773 16.12ZM30.4873 15.39C30.8206 15.39 31.114 15.3133 31.3673 15.16C31.6206 15 31.8206 14.78 31.9673 14.5C32.114 14.22 32.1873 13.8933 32.1873 13.52C32.1873 13.1467 32.114 12.82 31.9673 12.54C31.8206 12.26 31.6206 12.0433 31.3673 11.89C31.114 11.73 30.8206 11.65 30.4873 11.65C30.154 11.65 29.8606 11.73 29.6073 11.89C29.354 12.0433 29.154 12.26 29.0073 12.54C28.8606 12.82 28.7873 13.1467 28.7873 13.52C28.7873 13.8933 28.8606 14.22 29.0073 14.5C29.154 14.78 29.354 15 29.6073 15.16C29.8606 15.3133 30.154 15.39 30.4873 15.39ZM34.2066 16V8.8H35.0466V16H34.2066ZM38.6534 16.12C38.1801 16.12 37.7601 16.0133 37.3934 15.8C37.0267 15.58 36.7367 15.2767 36.5234 14.89C36.3167 14.5033 36.2134 14.0467 36.2134 13.52C36.2134 13 36.3167 12.5467 36.5234 12.16C36.7301 11.7667 37.0167 11.4633 37.3834 11.25C37.7567 11.03 38.1867 10.92 38.6734 10.92C39.1534 10.92 39.5667 11.03 39.9134 11.25C40.2667 11.4633 40.5367 11.7467 40.7234 12.1C40.9101 12.4533 41.0034 12.8333 41.0034 13.24C41.0034 13.3133 41.0001 13.3867 40.9934 13.46C40.9934 13.5333 40.9934 13.6167 40.9934 13.71H37.0434C37.0634 14.09 37.1501 14.4067 37.3034 14.66C37.4634 14.9067 37.6601 15.0933 37.8934 15.22C38.1334 15.3467 38.3867 15.41 38.6534 15.41C39.0001 15.41 39.2901 15.33 39.5234 15.17C39.7567 15.01 39.9267 14.7933 40.0334 14.52H40.8634C40.7301 14.98 40.4734 15.3633 40.0934 15.67C39.7201 15.97 39.2401 16.12 38.6534 16.12ZM38.6534 11.63C38.2534 11.63 37.8967 11.7533 37.5834 12C37.2767 12.24 37.1001 12.5933 37.0534 13.06H40.1734C40.1534 12.6133 40.0001 12.2633 39.7134 12.01C39.4267 11.7567 39.0734 11.63 38.6534 11.63Z" fill="black"/>
</svg>
