<svg width="17" height="20" viewBox="0 0 17 20" fill="none" xmlns="http://www.w3.org/2000/svg">
<path fill-rule="evenodd" clip-rule="evenodd" d="M4.11963 7.30955C1.91829 9.6918 1.96488 13.4683 4.25938 15.8072C5.37954 16.9523 6.86804 17.5839 8.45404 17.585H8.45946C10.0487 17.585 11.5426 16.9534 12.6682 15.8072C15.0039 13.4261 14.9995 9.55313 12.6585 7.17522L9.42363 3.86997C9.09646 6.5588 8.08788 8.9183 6.29171 8.9183C5.74138 8.9183 4.84438 8.67347 4.11963 7.30955V7.30955ZM8.45946 19.7516H8.45188C6.27871 19.7495 4.23988 18.8882 2.71129 17.3228C-0.445541 14.1053 -0.449875 8.86955 2.70154 5.65747L3.76646 4.58063C4.04163 4.30547 4.44138 4.1993 4.81946 4.29788C5.19538 4.39972 5.48788 4.69547 5.58538 5.07247C5.83454 6.03555 6.13138 6.50897 6.29496 6.6888C6.67954 6.28363 7.37504 4.64672 7.37504 1.87663C7.37504 1.71738 7.37504 1.5668 7.36638 1.41622C7.34579 1.09663 7.46821 0.783551 7.70004 0.562551C8.13013 0.154134 8.81913 0.154134 9.23188 0.578801L14.2044 5.65855C17.3677 8.86955 17.3731 14.1053 14.2152 17.3239C12.678 18.8904 10.6348 19.7516 8.45946 19.7516V19.7516Z" fill="black"/>
</svg>
