<svg width="22" height="22" viewBox="0 0 22 22" fill="none" xmlns="http://www.w3.org/2000/svg">
<path fill-rule="evenodd" clip-rule="evenodd" d="M2.76975 10.5906C3.97875 11.0055 4.94184 12.0173 5.34484 13.3L5.38817 13.43C5.84967 14.7907 5.66225 16.2553 4.88875 17.3538C4.74792 17.5532 4.77934 17.7915 4.92775 17.9042L7.17242 19.6093C7.25151 19.6689 7.32842 19.6689 7.37609 19.6635C7.43026 19.6548 7.50934 19.6256 7.57325 19.5346L7.8235 19.1792C8.56992 18.1208 9.77242 17.4676 11.0421 17.4307C12.4678 17.4015 13.7483 18.0547 14.5456 19.2063L14.6734 19.3916C14.7373 19.4826 14.8153 19.5129 14.8706 19.5216C14.9183 19.5313 14.9963 19.5281 15.0743 19.4674L17.307 17.7828C17.463 17.6658 17.4977 17.4156 17.3818 17.2477L17.1001 16.8414C16.3743 15.7927 16.1587 14.4321 16.5238 13.2025C16.9203 11.8635 17.9288 10.804 19.2234 10.3707L19.4412 10.297C19.6156 10.2396 19.7098 10.0229 19.6481 9.82358L18.7955 7.0925C18.7554 6.96466 18.6731 6.90725 18.6276 6.88341C18.5626 6.84983 18.4922 6.84441 18.425 6.86716L18.0567 6.98958C16.7968 7.40883 15.4068 7.18133 14.3398 6.37858L14.2228 6.29083C13.2088 5.52816 12.6053 4.29858 12.6097 3.00291L12.6118 2.69958C12.6118 2.5555 12.5436 2.46558 12.5024 2.42441C12.4634 2.38433 12.3973 2.33666 12.3042 2.33666L9.54492 2.33341C9.37592 2.33341 9.23834 2.49483 9.23726 2.69416L9.23617 2.95633C9.23076 4.27258 8.61434 5.52491 7.58734 6.30816L7.44759 6.41433C6.31767 7.27341 4.84434 7.51608 3.50967 7.06108C3.45875 7.04375 3.41109 7.047 3.36559 7.07083C3.33092 7.08816 3.26809 7.13258 3.23775 7.23116L2.35267 10.0435C2.28875 10.2482 2.39384 10.4617 2.59209 10.5299L2.76975 10.5906ZM7.33167 21.8334C6.80517 21.8334 6.29384 21.6622 5.86267 21.334L3.618 19.6299C2.5455 18.8174 2.30825 17.2542 3.08825 16.1459C3.49342 15.5717 3.57684 14.834 3.3385 14.1342L3.27892 13.9522C3.08067 13.3217 2.62784 12.832 2.06775 12.6402H2.06667L1.89009 12.5785C0.570587 12.1267 -0.13358 10.7282 0.28567 9.3935L1.16967 6.58225C1.37009 5.94633 1.80234 5.43283 2.38734 5.13708C2.95934 4.84891 3.60609 4.8045 4.21059 5.01141C4.8595 5.23241 5.57992 5.11216 6.13567 4.68966L6.27542 4.5835C6.76942 4.2065 7.06734 3.59441 7.0695 2.94766L7.07059 2.68658C7.076 1.29558 8.18642 0.166748 9.54384 0.166748H9.54817L12.3074 0.169998C12.9596 0.171081 13.5749 0.428915 14.0386 0.895831C14.5185 1.37791 14.7807 2.0225 14.7785 2.71041L14.7763 3.01266C14.7742 3.62583 15.0548 4.20541 15.5282 4.56075L15.6441 4.6485C16.1413 5.02225 16.7892 5.1295 17.3709 4.9345L17.7382 4.81208C18.3633 4.60408 19.0284 4.655 19.6145 4.95508C20.2158 5.26275 20.6599 5.7925 20.8636 6.44791L21.7162 9.179C22.1278 10.4985 21.415 11.922 20.1291 12.3521L19.9113 12.4247C19.2873 12.6348 18.7966 13.1548 18.6005 13.8178C18.4207 14.4256 18.5247 15.094 18.8811 15.6075L19.1628 16.0137C19.9363 17.1317 19.6893 18.7004 18.6124 19.5118L16.3797 21.1975C15.8434 21.6027 15.1858 21.7662 14.5261 21.6612C13.8609 21.5539 13.2803 21.1856 12.8913 20.6244L12.7635 20.4381C12.3843 19.8921 11.7777 19.5606 11.1418 19.5963C10.5048 19.6137 9.95442 19.9159 9.59475 20.4272L9.3445 20.7826C8.95234 21.3383 8.37059 21.7012 7.70867 21.8052C7.58192 21.8247 7.45625 21.8334 7.33167 21.8334ZM11.0001 9.37497C10.1041 9.37497 9.37505 10.1041 9.37505 11C9.37505 11.8959 10.1041 12.625 11.0001 12.625C11.896 12.625 12.6251 11.8959 12.6251 11C12.6251 10.1041 11.896 9.37497 11.0001 9.37497ZM11.0001 14.7916C8.90922 14.7916 7.20839 13.0908 7.20839 11C7.20839 8.90914 8.90922 7.20831 11.0001 7.20831C13.0909 7.20831 14.7917 8.90914 14.7917 11C14.7917 13.0908 13.0909 14.7916 11.0001 14.7916Z" fill="black"/>
</svg>
