<svg width="22" height="20" viewBox="0 0 22 20" fill="none" xmlns="http://www.w3.org/2000/svg">
<path fill-rule="evenodd" clip-rule="evenodd" d="M10.9998 0.249878C13.7959 0.249878 16.2594 2.04929 17.1478 4.63196C19.79 4.99055 21.8332 7.26121 21.8332 9.99988C21.8332 11.3226 21.3522 12.5955 20.479 13.5846C20.2645 13.8262 19.9666 13.9508 19.6665 13.9508C19.4119 13.9508 19.1563 13.862 18.9493 13.68C18.5019 13.2824 18.4586 12.5988 18.8551 12.1492C19.3783 11.5577 19.6665 10.7929 19.6665 9.99988C19.6665 8.20805 18.2083 6.74988 16.4165 6.74988H16.3082C15.7925 6.74988 15.3483 6.38588 15.2465 5.87996C14.8413 3.87363 13.056 2.41654 10.9998 2.41654C8.94475 2.41654 7.15834 3.87363 6.75425 5.87996C6.65242 6.38588 6.20717 6.74988 5.6915 6.74988H5.58317C3.79134 6.74988 2.33317 8.20805 2.33317 9.99988C2.33317 10.7929 2.62134 11.5577 3.14567 12.1492C3.54109 12.5988 3.49884 13.2824 3.05034 13.68C2.60075 14.0765 1.91717 14.032 1.52175 13.5846C0.647504 12.5955 0.166504 11.3226 0.166504 9.99988C0.166504 7.26121 2.20967 4.99055 4.85192 4.63196C5.74134 2.04929 8.20484 0.249878 10.9998 0.249878ZM12.0836 16.1141L13.4974 14.7491C13.9285 14.3342 14.6143 14.3461 15.0292 14.7762C15.4452 15.2074 15.4333 15.8931 15.0032 16.308L11.7532 19.4464C11.5419 19.6479 11.2711 19.7498 11.0003 19.7498C10.7229 19.7498 10.4456 19.6447 10.2344 19.4324L6.98435 16.1824C6.56077 15.7599 6.56077 15.0741 6.98435 14.6505C7.40685 14.228 8.0926 14.228 8.51618 14.6505L9.91693 16.0513V9.99977C9.91693 9.40069 10.4023 8.91644 11.0003 8.91644C11.5983 8.91644 12.0836 9.40069 12.0836 9.99977V16.1141Z" fill="black"/>
</svg>
