<svg width="60" height="24" viewBox="0 0 60 24" fill="none" xmlns="http://www.w3.org/2000/svg">
<rect width="60" height="24" rx="6" fill="#FFE5D3"/>
<path d="M7.91383 16V9H8.75383V12.17L11.6738 9H12.7338L10.1338 11.79L12.7738 16H11.7538L9.53383 12.44L8.75383 13.27V16H7.91383ZM13.6841 16V8.8H14.5241V11.89C14.6908 11.5833 14.9275 11.3467 15.2341 11.18C15.5408 11.0067 15.8741 10.92 16.2341 10.92C16.8075 10.92 17.2675 11.1 17.6141 11.46C17.9608 11.8133 18.1341 12.36 18.1341 13.1V16H17.3041V13.19C17.3041 12.1567 16.8875 11.64 16.0541 11.64C15.6208 11.64 15.2575 11.7967 14.9641 12.11C14.6708 12.4167 14.5241 12.8567 14.5241 13.43V16H13.6841ZM21.0568 16.12C20.6435 16.12 20.3001 16.05 20.0268 15.91C19.7535 15.77 19.5501 15.5833 19.4168 15.35C19.2835 15.1167 19.2168 14.8633 19.2168 14.59C19.2168 14.0833 19.4101 13.6933 19.7968 13.42C20.1835 13.1467 20.7101 13.01 21.3768 13.01H22.7168V12.95C22.7168 12.5167 22.6035 12.19 22.3768 11.97C22.1501 11.7433 21.8468 11.63 21.4668 11.63C21.1401 11.63 20.8568 11.7133 20.6168 11.88C20.3835 12.04 20.2368 12.2767 20.1768 12.59H19.3168C19.3501 12.23 19.4701 11.9267 19.6768 11.68C19.8901 11.4333 20.1535 11.2467 20.4668 11.12C20.7801 10.9867 21.1135 10.92 21.4668 10.92C22.1601 10.92 22.6801 11.1067 23.0268 11.48C23.3801 11.8467 23.5568 12.3367 23.5568 12.95V16H22.8068L22.7568 15.11C22.6168 15.39 22.4101 15.63 22.1368 15.83C21.8701 16.0233 21.5101 16.12 21.0568 16.12ZM21.1868 15.41C21.5068 15.41 21.7801 15.3267 22.0068 15.16C22.2401 14.9933 22.4168 14.7767 22.5368 14.51C22.6568 14.2433 22.7168 13.9633 22.7168 13.67V13.66H21.4468C20.9535 13.66 20.6035 13.7467 20.3968 13.92C20.1968 14.0867 20.0968 14.2967 20.0968 14.55C20.0968 14.81 20.1901 15.02 20.3768 15.18C20.5701 15.3333 20.8401 15.41 21.1868 15.41ZM24.817 16V11.04H25.577L25.647 11.99C25.8003 11.6633 26.0336 11.4033 26.347 11.21C26.6603 11.0167 27.047 10.92 27.507 10.92V11.8H27.277C26.9836 11.8 26.7136 11.8533 26.467 11.96C26.2203 12.06 26.0236 12.2333 25.877 12.48C25.7303 12.7267 25.657 13.0667 25.657 13.5V16H24.817ZM30.4098 16C29.9564 16 29.5998 15.89 29.3398 15.67C29.0798 15.45 28.9498 15.0533 28.9498 14.48V11.75H28.0898V11.04H28.9498L29.0598 9.85H29.7898V11.04H31.2498V11.75H29.7898V14.48C29.7898 14.7933 29.8531 15.0067 29.9798 15.12C30.1064 15.2267 30.3298 15.28 30.6498 15.28H31.1698V16H30.4098ZM34.4402 16.12C33.9736 16.12 33.5536 16.0133 33.1802 15.8C32.8069 15.5867 32.5102 15.2867 32.2902 14.9C32.0769 14.5067 31.9702 14.0467 31.9702 13.52C31.9702 12.9933 32.0802 12.5367 32.3002 12.15C32.5202 11.7567 32.8169 11.4533 33.1902 11.24C33.5702 11.0267 33.9936 10.92 34.4602 10.92C34.9269 10.92 35.3469 11.0267 35.7202 11.24C36.0936 11.4533 36.3869 11.7567 36.6002 12.15C36.8202 12.5367 36.9302 12.9933 36.9302 13.52C36.9302 14.0467 36.8202 14.5067 36.6002 14.9C36.3802 15.2867 36.0802 15.5867 35.7002 15.8C35.3269 16.0133 34.9069 16.12 34.4402 16.12ZM34.4402 15.4C34.7269 15.4 34.9936 15.33 35.2402 15.19C35.4869 15.05 35.6869 14.84 35.8402 14.56C35.9936 14.28 36.0702 13.9333 36.0702 13.52C36.0702 13.1067 35.9936 12.76 35.8402 12.48C35.6936 12.2 35.4969 11.99 35.2502 11.85C35.0036 11.71 34.7402 11.64 34.4602 11.64C34.1736 11.64 33.9069 11.71 33.6602 11.85C33.4136 11.99 33.2136 12.2 33.0602 12.48C32.9069 12.76 32.8302 13.1067 32.8302 13.52C32.8302 13.9333 32.9069 14.28 33.0602 14.56C33.2136 14.84 33.4102 15.05 33.6502 15.19C33.8969 15.33 34.1602 15.4 34.4402 15.4ZM39.9082 16.12C39.3215 16.12 38.8549 15.9433 38.5082 15.59C38.1615 15.23 37.9882 14.68 37.9882 13.94V11.04H38.8282V13.85C38.8282 14.8833 39.2515 15.4 40.0982 15.4C40.5315 15.4 40.8882 15.2467 41.1682 14.94C41.4549 14.6267 41.5982 14.1833 41.5982 13.61V11.04H42.4382V16H41.6782L41.6182 15.11C41.4649 15.4233 41.2349 15.67 40.9282 15.85C40.6282 16.03 40.2882 16.12 39.9082 16.12ZM43.8209 16V11.04H44.5809L44.6409 11.76C44.8009 11.4933 45.0142 11.2867 45.2809 11.14C45.5475 10.9933 45.8475 10.92 46.1809 10.92C46.5742 10.92 46.9109 11 47.1909 11.16C47.4775 11.32 47.6975 11.5633 47.8509 11.89C48.0242 11.59 48.2609 11.3533 48.5609 11.18C48.8675 11.0067 49.1975 10.92 49.5509 10.92C50.1442 10.92 50.6175 11.1 50.9709 11.46C51.3242 11.8133 51.5009 12.36 51.5009 13.1V16H50.6709V13.19C50.6709 12.6767 50.5675 12.29 50.3609 12.03C50.1542 11.77 49.8575 11.64 49.4709 11.64C49.0709 11.64 48.7375 11.7967 48.4709 12.11C48.2109 12.4167 48.0809 12.8567 48.0809 13.43V16H47.2409V13.19C47.2409 12.6767 47.1375 12.29 46.9309 12.03C46.7242 11.77 46.4275 11.64 46.0409 11.64C45.6475 11.64 45.3175 11.7967 45.0509 12.11C44.7909 12.4167 44.6609 12.8567 44.6609 13.43V16H43.8209Z" fill="black"/>
</svg>
