<svg width="40" height="24" viewBox="0 0 40 24" fill="none" xmlns="http://www.w3.org/2000/svg">
<rect width="40" height="24" rx="6" fill="#DAD7FE"/>
<path d="M10.6902 16V9H11.5302V15.33H14.7902V16H10.6902ZM17.9393 16.12C17.4726 16.12 17.0526 16.0133 16.6793 15.8C16.3059 15.5867 16.0093 15.2867 15.7893 14.9C15.5759 14.5067 15.4693 14.0467 15.4693 13.52C15.4693 12.9933 15.5793 12.5367 15.7993 12.15C16.0193 11.7567 16.3159 11.4533 16.6893 11.24C17.0693 11.0267 17.4926 10.92 17.9593 10.92C18.4259 10.92 18.8459 11.0267 19.2193 11.24C19.5926 11.4533 19.8859 11.7567 20.0993 12.15C20.3193 12.5367 20.4293 12.9933 20.4293 13.52C20.4293 14.0467 20.3193 14.5067 20.0993 14.9C19.8793 15.2867 19.5793 15.5867 19.1993 15.8C18.8259 16.0133 18.4059 16.12 17.9393 16.12ZM17.9393 15.4C18.2259 15.4 18.4926 15.33 18.7393 15.19C18.9859 15.05 19.1859 14.84 19.3393 14.56C19.4926 14.28 19.5693 13.9333 19.5693 13.52C19.5693 13.1067 19.4926 12.76 19.3393 12.48C19.1926 12.2 18.9959 11.99 18.7493 11.85C18.5026 11.71 18.2393 11.64 17.9593 11.64C17.6726 11.64 17.4059 11.71 17.1593 11.85C16.9126 11.99 16.7126 12.2 16.5593 12.48C16.4059 12.76 16.3293 13.1067 16.3293 13.52C16.3293 13.9333 16.4059 14.28 16.5593 14.56C16.7126 14.84 16.9093 15.05 17.1493 15.19C17.3959 15.33 17.6593 15.4 17.9393 15.4ZM23.4972 16.12C22.9039 16.12 22.4106 15.97 22.0172 15.67C21.6239 15.37 21.3939 14.9633 21.3272 14.45H22.1872C22.2406 14.71 22.3772 14.9367 22.5972 15.13C22.8239 15.3167 23.1272 15.41 23.5072 15.41C23.8606 15.41 24.1206 15.3367 24.2872 15.19C24.4539 15.0367 24.5372 14.8567 24.5372 14.65C24.5372 14.35 24.4272 14.15 24.2072 14.05C23.9939 13.95 23.6906 13.86 23.2972 13.78C23.0306 13.7267 22.7639 13.65 22.4972 13.55C22.2306 13.45 22.0072 13.31 21.8272 13.13C21.6472 12.9433 21.5572 12.7 21.5572 12.4C21.5572 11.9667 21.7172 11.6133 22.0372 11.34C22.3639 11.06 22.8039 10.92 23.3572 10.92C23.8839 10.92 24.3139 11.0533 24.6472 11.32C24.9872 11.58 25.1839 11.9533 25.2372 12.44H24.4072C24.3739 12.1867 24.2639 11.99 24.0772 11.85C23.8972 11.7033 23.6539 11.63 23.3472 11.63C23.0472 11.63 22.8139 11.6933 22.6472 11.82C22.4872 11.9467 22.4072 12.1133 22.4072 12.32C22.4072 12.52 22.5106 12.6767 22.7172 12.79C22.9306 12.9033 23.2172 13 23.5772 13.08C23.8839 13.1467 24.1739 13.23 24.4472 13.33C24.7272 13.4233 24.9539 13.5667 25.1272 13.76C25.3072 13.9467 25.3972 14.22 25.3972 14.58C25.4039 15.0267 25.2339 15.3967 24.8872 15.69C24.5472 15.9767 24.0839 16.12 23.4972 16.12ZM28.3326 16C27.8793 16 27.5226 15.89 27.2626 15.67C27.0026 15.45 26.8726 15.0533 26.8726 14.48V11.75H26.0126V11.04H26.8726L26.9826 9.85H27.7126V11.04H29.1726V11.75H27.7126V14.48C27.7126 14.7933 27.776 15.0067 27.9026 15.12C28.0293 15.2267 28.2526 15.28 28.5726 15.28H29.0926V16H28.3326Z" fill="black"/>
</svg>
