<svg width="40" height="24" viewBox="0 0 40 24" fill="none" xmlns="http://www.w3.org/2000/svg">
<rect width="40" height="24" rx="6" fill="#FFF5CC"/>
<path d="M8.54859 16V9H9.52859L12.0486 13.88L14.5486 9H15.5386V16H14.6986V10.5L12.3586 15H11.7286L9.38859 10.51V16H8.54859ZM19.1954 16.12C18.7221 16.12 18.3021 16.0133 17.9354 15.8C17.5687 15.58 17.2787 15.2767 17.0654 14.89C16.8587 14.5033 16.7554 14.0467 16.7554 13.52C16.7554 13 16.8587 12.5467 17.0654 12.16C17.2721 11.7667 17.5587 11.4633 17.9254 11.25C18.2987 11.03 18.7287 10.92 19.2154 10.92C19.6954 10.92 20.1087 11.03 20.4554 11.25C20.8087 11.4633 21.0787 11.7467 21.2654 12.1C21.4521 12.4533 21.5454 12.8333 21.5454 13.24C21.5454 13.3133 21.5421 13.3867 21.5354 13.46C21.5354 13.5333 21.5354 13.6167 21.5354 13.71H17.5854C17.6054 14.09 17.6921 14.4067 17.8454 14.66C18.0054 14.9067 18.2021 15.0933 18.4354 15.22C18.6754 15.3467 18.9287 15.41 19.1954 15.41C19.5421 15.41 19.8321 15.33 20.0654 15.17C20.2987 15.01 20.4687 14.7933 20.5754 14.52H21.4054C21.2721 14.98 21.0154 15.3633 20.6354 15.67C20.2621 15.97 19.7821 16.12 19.1954 16.12ZM19.1954 11.63C18.7954 11.63 18.4387 11.7533 18.1254 12C17.8187 12.24 17.6421 12.5933 17.5954 13.06H20.7154C20.6954 12.6133 20.5421 12.2633 20.2554 12.01C19.9687 11.7567 19.6154 11.63 19.1954 11.63ZM22.6588 16V11.04H23.4188L23.4688 11.93C23.6288 11.6167 23.8588 11.37 24.1588 11.19C24.4588 11.01 24.7988 10.92 25.1788 10.92C25.7654 10.92 26.2321 11.1 26.5788 11.46C26.9321 11.8133 27.1087 12.36 27.1087 13.1V16H26.2688V13.19C26.2688 12.1567 25.8421 11.64 24.9888 11.64C24.5621 11.64 24.2054 11.7967 23.9188 12.11C23.6388 12.4167 23.4988 12.8567 23.4988 13.43V16H22.6588ZM30.2814 16.12C29.6881 16.12 29.1947 15.97 28.8014 15.67C28.4081 15.37 28.1781 14.9633 28.1114 14.45H28.9714C29.0247 14.71 29.1614 14.9367 29.3814 15.13C29.6081 15.3167 29.9114 15.41 30.2914 15.41C30.6447 15.41 30.9047 15.3367 31.0714 15.19C31.2381 15.0367 31.3214 14.8567 31.3214 14.65C31.3214 14.35 31.2114 14.15 30.9914 14.05C30.7781 13.95 30.4747 13.86 30.0814 13.78C29.8147 13.7267 29.5481 13.65 29.2814 13.55C29.0147 13.45 28.7914 13.31 28.6114 13.13C28.4314 12.9433 28.3414 12.7 28.3414 12.4C28.3414 11.9667 28.5014 11.6133 28.8214 11.34C29.1481 11.06 29.5881 10.92 30.1414 10.92C30.6681 10.92 31.0981 11.0533 31.4314 11.32C31.7714 11.58 31.9681 11.9533 32.0214 12.44H31.1914C31.1581 12.1867 31.0481 11.99 30.8614 11.85C30.6814 11.7033 30.4381 11.63 30.1314 11.63C29.8314 11.63 29.5981 11.6933 29.4314 11.82C29.2714 11.9467 29.1914 12.1133 29.1914 12.32C29.1914 12.52 29.2947 12.6767 29.5014 12.79C29.7147 12.9033 30.0014 13 30.3614 13.08C30.6681 13.1467 30.9581 13.23 31.2314 13.33C31.5114 13.4233 31.7381 13.5667 31.9114 13.76C32.0914 13.9467 32.1814 14.22 32.1814 14.58C32.1881 15.0267 32.0181 15.3967 31.6714 15.69C31.3314 15.9767 30.8681 16.12 30.2814 16.12Z" fill="black"/>
</svg>
