<svg width="40" height="24" viewBox="0 0 40 24" fill="none" xmlns="http://www.w3.org/2000/svg">
<rect width="40" height="24" rx="6" fill="#FFF5CC"/>
<path d="M8.88551 16V9H9.86551L12.3855 13.88L14.8855 9H15.8755V16H15.0355V10.5L12.6955 15H12.0655L9.72551 10.51V16H8.88551ZM17.8123 9.94C17.6456 9.94 17.5056 9.88667 17.3923 9.78C17.2856 9.66667 17.2323 9.52667 17.2323 9.36C17.2323 9.2 17.2856 9.06667 17.3923 8.96C17.5056 8.85333 17.6456 8.8 17.8123 8.8C17.9723 8.8 18.109 8.85333 18.2223 8.96C18.3356 9.06667 18.3923 9.2 18.3923 9.36C18.3923 9.52667 18.3356 9.66667 18.2223 9.78C18.109 9.88667 17.9723 9.94 17.8123 9.94ZM17.3923 16V11.04H18.2323V16H17.3923ZM19.6949 16V8.8H20.5349V16H19.6949ZM23.5617 16.12C23.1483 16.12 22.805 16.05 22.5317 15.91C22.2583 15.77 22.055 15.5833 21.9217 15.35C21.7883 15.1167 21.7217 14.8633 21.7217 14.59C21.7217 14.0833 21.915 13.6933 22.3017 13.42C22.6883 13.1467 23.215 13.01 23.8817 13.01H25.2217V12.95C25.2217 12.5167 25.1083 12.19 24.8817 11.97C24.655 11.7433 24.3517 11.63 23.9717 11.63C23.645 11.63 23.3617 11.7133 23.1217 11.88C22.8883 12.04 22.7417 12.2767 22.6817 12.59H21.8217C21.855 12.23 21.975 11.9267 22.1817 11.68C22.395 11.4333 22.6583 11.2467 22.9717 11.12C23.285 10.9867 23.6183 10.92 23.9717 10.92C24.665 10.92 25.185 11.1067 25.5317 11.48C25.885 11.8467 26.0617 12.3367 26.0617 12.95V16H25.3117L25.2617 15.11C25.1217 15.39 24.915 15.63 24.6417 15.83C24.375 16.0233 24.015 16.12 23.5617 16.12ZM23.6917 15.41C24.0117 15.41 24.285 15.3267 24.5117 15.16C24.745 14.9933 24.9217 14.7767 25.0417 14.51C25.1617 14.2433 25.2217 13.9633 25.2217 13.67V13.66H23.9517C23.4583 13.66 23.1083 13.7467 22.9017 13.92C22.7017 14.0867 22.6017 14.2967 22.6017 14.55C22.6017 14.81 22.695 15.02 22.8817 15.18C23.075 15.3333 23.345 15.41 23.6917 15.41ZM27.3218 16V11.04H28.0818L28.1318 11.93C28.2918 11.6167 28.5218 11.37 28.8218 11.19C29.1218 11.01 29.4618 10.92 29.8418 10.92C30.4285 10.92 30.8952 11.1 31.2418 11.46C31.5952 11.8133 31.7718 12.36 31.7718 13.1V16H30.9318V13.19C30.9318 12.1567 30.5052 11.64 29.6518 11.64C29.2252 11.64 28.8685 11.7967 28.5818 12.11C28.3018 12.4167 28.1618 12.8567 28.1618 13.43V16H27.3218Z" fill="black"/>
</svg>
