<svg width="60" height="24" viewBox="0 0 60 24" fill="none" xmlns="http://www.w3.org/2000/svg">
<rect width="60" height="24" rx="6" fill="#FFE5D3"/>
<path d="M12.0916 16V9H13.0716L15.5916 13.88L18.0916 9H19.0816V16H18.2416V10.5L15.9016 15H15.2716L12.9316 10.51V16H12.0916ZM21.0184 9.94C20.8517 9.94 20.7117 9.88667 20.5984 9.78C20.4917 9.66667 20.4384 9.52667 20.4384 9.36C20.4384 9.2 20.4917 9.06667 20.5984 8.96C20.7117 8.85333 20.8517 8.8 21.0184 8.8C21.1784 8.8 21.315 8.85333 21.4284 8.96C21.5417 9.06667 21.5984 9.2 21.5984 9.36C21.5984 9.52667 21.5417 9.66667 21.4284 9.78C21.315 9.88667 21.1784 9.94 21.0184 9.94ZM20.5984 16V11.04H21.4384V16H20.5984ZM22.9009 16V11.04H23.6609L23.7109 11.93C23.8709 11.6167 24.1009 11.37 24.4009 11.19C24.7009 11.01 25.0409 10.92 25.4209 10.92C26.0076 10.92 26.4743 11.1 26.8209 11.46C27.1743 11.8133 27.3509 12.36 27.3509 13.1V16H26.5109V13.19C26.5109 12.1567 26.0843 11.64 25.2309 11.64C24.8043 11.64 24.4476 11.7967 24.1609 12.11C23.8809 12.4167 23.7409 12.8567 23.7409 13.43V16H22.9009ZM29.1336 9.94C28.9669 9.94 28.8269 9.88667 28.7136 9.78C28.6069 9.66667 28.5536 9.52667 28.5536 9.36C28.5536 9.2 28.6069 9.06667 28.7136 8.96C28.8269 8.85333 28.9669 8.8 29.1336 8.8C29.2936 8.8 29.4303 8.85333 29.5436 8.96C29.6569 9.06667 29.7136 9.2 29.7136 9.36C29.7136 9.52667 29.6569 9.66667 29.5436 9.78C29.4303 9.88667 29.2936 9.94 29.1336 9.94ZM28.7136 16V11.04H29.5536V16H28.7136ZM31.0162 16V11.04H31.7762L31.8362 11.76C31.9962 11.4933 32.2095 11.2867 32.4762 11.14C32.7428 10.9933 33.0428 10.92 33.3762 10.92C33.7695 10.92 34.1062 11 34.3862 11.16C34.6728 11.32 34.8928 11.5633 35.0462 11.89C35.2195 11.59 35.4562 11.3533 35.7562 11.18C36.0628 11.0067 36.3928 10.92 36.7462 10.92C37.3395 10.92 37.8128 11.1 38.1662 11.46C38.5195 11.8133 38.6962 12.36 38.6962 13.1V16H37.8662V13.19C37.8662 12.6767 37.7628 12.29 37.5562 12.03C37.3495 11.77 37.0528 11.64 36.6662 11.64C36.2662 11.64 35.9328 11.7967 35.6662 12.11C35.4062 12.4167 35.2762 12.8567 35.2762 13.43V16H34.4362V13.19C34.4362 12.6767 34.3328 12.29 34.1262 12.03C33.9195 11.77 33.6228 11.64 33.2362 11.64C32.8428 11.64 32.5128 11.7967 32.2462 12.11C31.9862 12.4167 31.8562 12.8567 31.8562 13.43V16H31.0162ZM41.6115 16.12C41.1982 16.12 40.8548 16.05 40.5815 15.91C40.3082 15.77 40.1048 15.5833 39.9715 15.35C39.8382 15.1167 39.7715 14.8633 39.7715 14.59C39.7715 14.0833 39.9648 13.6933 40.3515 13.42C40.7382 13.1467 41.2648 13.01 41.9315 13.01H43.2715V12.95C43.2715 12.5167 43.1582 12.19 42.9315 11.97C42.7048 11.7433 42.4015 11.63 42.0215 11.63C41.6948 11.63 41.4115 11.7133 41.1715 11.88C40.9382 12.04 40.7915 12.2767 40.7315 12.59H39.8715C39.9048 12.23 40.0248 11.9267 40.2315 11.68C40.4448 11.4333 40.7082 11.2467 41.0215 11.12C41.3348 10.9867 41.6682 10.92 42.0215 10.92C42.7148 10.92 43.2348 11.1067 43.5815 11.48C43.9348 11.8467 44.1115 12.3367 44.1115 12.95V16H43.3615L43.3115 15.11C43.1715 15.39 42.9648 15.63 42.6915 15.83C42.4248 16.0233 42.0648 16.12 41.6115 16.12ZM41.7415 15.41C42.0615 15.41 42.3348 15.3267 42.5615 15.16C42.7948 14.9933 42.9715 14.7767 43.0915 14.51C43.2115 14.2433 43.2715 13.9633 43.2715 13.67V13.66H42.0015C41.5082 13.66 41.1582 13.7467 40.9515 13.92C40.7515 14.0867 40.6515 14.2967 40.6515 14.55C40.6515 14.81 40.7448 15.02 40.9315 15.18C41.1248 15.3333 41.3948 15.41 41.7415 15.41ZM45.3716 16V8.8H46.2116V16H45.3716Z" fill="black"/>
</svg>
