<svg width="40" height="24" viewBox="0 0 40 24" fill="none" xmlns="http://www.w3.org/2000/svg">
<rect width="40" height="24" rx="6" fill="#FFF5CC"/>
<path d="M8.61926 16V9.69H6.52926V9H11.5493V9.69H9.45926V16H8.61926ZM13.4328 16.12C13.0194 16.12 12.6761 16.05 12.4028 15.91C12.1294 15.77 11.9261 15.5833 11.7928 15.35C11.6594 15.1167 11.5928 14.8633 11.5928 14.59C11.5928 14.0833 11.7861 13.6933 12.1728 13.42C12.5594 13.1467 13.0861 13.01 13.7528 13.01H15.0928V12.95C15.0928 12.5167 14.9794 12.19 14.7528 11.97C14.5261 11.7433 14.2228 11.63 13.8428 11.63C13.5161 11.63 13.2328 11.7133 12.9928 11.88C12.7594 12.04 12.6128 12.2767 12.5528 12.59H11.6928C11.7261 12.23 11.8461 11.9267 12.0528 11.68C12.2661 11.4333 12.5294 11.2467 12.8428 11.12C13.1561 10.9867 13.4894 10.92 13.8428 10.92C14.5361 10.92 15.0561 11.1067 15.4028 11.48C15.7561 11.8467 15.9328 12.3367 15.9328 12.95V16H15.1828L15.1328 15.11C14.9928 15.39 14.7861 15.63 14.5128 15.83C14.2461 16.0233 13.8861 16.12 13.4328 16.12ZM13.5628 15.41C13.8828 15.41 14.1561 15.3267 14.3828 15.16C14.6161 14.9933 14.7928 14.7767 14.9128 14.51C15.0328 14.2433 15.0928 13.9633 15.0928 13.67V13.66H13.8228C13.3294 13.66 12.9794 13.7467 12.7728 13.92C12.5728 14.0867 12.4728 14.2967 12.4728 14.55C12.4728 14.81 12.5661 15.02 12.7528 15.18C12.9461 15.3333 13.2161 15.41 13.5628 15.41ZM17.7029 9.94C17.5363 9.94 17.3963 9.88667 17.2829 9.78C17.1763 9.66667 17.1229 9.52667 17.1229 9.36C17.1229 9.2 17.1763 9.06667 17.2829 8.96C17.3963 8.85333 17.5363 8.8 17.7029 8.8C17.8629 8.8 17.9996 8.85333 18.1129 8.96C18.2263 9.06667 18.2829 9.2 18.2829 9.36C18.2829 9.52667 18.2263 9.66667 18.1129 9.78C17.9996 9.88667 17.8629 9.94 17.7029 9.94ZM17.2829 16V11.04H18.1229V16H17.2829ZM19.5855 18.2V11.04H20.3455L20.4255 11.86C20.5855 11.62 20.8122 11.4033 21.1055 11.21C21.4055 11.0167 21.7855 10.92 22.2455 10.92C22.7388 10.92 23.1688 11.0333 23.5355 11.26C23.9022 11.4867 24.1855 11.7967 24.3855 12.19C24.5922 12.5833 24.6955 13.03 24.6955 13.53C24.6955 14.03 24.5922 14.4767 24.3855 14.87C24.1855 15.2567 23.8988 15.5633 23.5255 15.79C23.1588 16.01 22.7288 16.12 22.2355 16.12C21.8288 16.12 21.4655 16.0367 21.1455 15.87C20.8322 15.7033 20.5922 15.47 20.4255 15.17V18.2H19.5855ZM22.1455 15.39C22.4788 15.39 22.7722 15.3133 23.0255 15.16C23.2788 15 23.4788 14.78 23.6255 14.5C23.7722 14.22 23.8455 13.8933 23.8455 13.52C23.8455 13.1467 23.7722 12.82 23.6255 12.54C23.4788 12.26 23.2788 12.0433 23.0255 11.89C22.7722 11.73 22.4788 11.65 22.1455 11.65C21.8122 11.65 21.5188 11.73 21.2655 11.89C21.0122 12.0433 20.8122 12.26 20.6655 12.54C20.5188 12.82 20.4455 13.1467 20.4455 13.52C20.4455 13.8933 20.5188 14.22 20.6655 14.5C20.8122 14.78 21.0122 15 21.2655 15.16C21.5188 15.3133 21.8122 15.39 22.1455 15.39ZM28.0948 16.12C27.6215 16.12 27.2015 16.0133 26.8348 15.8C26.4681 15.58 26.1781 15.2767 25.9648 14.89C25.7581 14.5033 25.6548 14.0467 25.6548 13.52C25.6548 13 25.7581 12.5467 25.9648 12.16C26.1715 11.7667 26.4581 11.4633 26.8248 11.25C27.1981 11.03 27.6281 10.92 28.1148 10.92C28.5948 10.92 29.0081 11.03 29.3548 11.25C29.7081 11.4633 29.9781 11.7467 30.1648 12.1C30.3515 12.4533 30.4448 12.8333 30.4448 13.24C30.4448 13.3133 30.4415 13.3867 30.4348 13.46C30.4348 13.5333 30.4348 13.6167 30.4348 13.71H26.4848C26.5048 14.09 26.5915 14.4067 26.7448 14.66C26.9048 14.9067 27.1015 15.0933 27.3348 15.22C27.5748 15.3467 27.8281 15.41 28.0948 15.41C28.4415 15.41 28.7315 15.33 28.9648 15.17C29.1981 15.01 29.3681 14.7933 29.4748 14.52H30.3048C30.1715 14.98 29.9148 15.3633 29.5348 15.67C29.1615 15.97 28.6815 16.12 28.0948 16.12ZM28.0948 11.63C27.6948 11.63 27.3381 11.7533 27.0248 12C26.7181 12.24 26.5415 12.5933 26.4948 13.06H29.6148C29.5948 12.6133 29.4415 12.2633 29.1548 12.01C28.8681 11.7567 28.5148 11.63 28.0948 11.63ZM32.0682 9.94C31.9015 9.94 31.7615 9.88667 31.6482 9.78C31.5415 9.66667 31.4882 9.52667 31.4882 9.36C31.4882 9.2 31.5415 9.06667 31.6482 8.96C31.7615 8.85333 31.9015 8.8 32.0682 8.8C32.2282 8.8 32.3648 8.85333 32.4782 8.96C32.5915 9.06667 32.6482 9.2 32.6482 9.36C32.6482 9.52667 32.5915 9.66667 32.4782 9.78C32.3648 9.88667 32.2282 9.94 32.0682 9.94ZM31.6482 16V11.04H32.4882V16H31.6482Z" fill="black"/>
</svg>
