<svg width="40" height="24" viewBox="0 0 40 24" fill="none" xmlns="http://www.w3.org/2000/svg">
<rect width="40" height="24" rx="6" fill="#DAD7FE"/>
<path d="M12.628 16V9.69H10.538V9H15.558V9.69H13.468V16H12.628ZM17.8653 16.12C17.392 16.12 16.972 16.0133 16.6053 15.8C16.2386 15.58 15.9486 15.2767 15.7353 14.89C15.5286 14.5033 15.4253 14.0467 15.4253 13.52C15.4253 13 15.5286 12.5467 15.7353 12.16C15.942 11.7667 16.2286 11.4633 16.5953 11.25C16.9686 11.03 17.3986 10.92 17.8853 10.92C18.3653 10.92 18.7786 11.03 19.1253 11.25C19.4786 11.4633 19.7486 11.7467 19.9353 12.1C20.122 12.4533 20.2153 12.8333 20.2153 13.24C20.2153 13.3133 20.212 13.3867 20.2053 13.46C20.2053 13.5333 20.2053 13.6167 20.2053 13.71H16.2553C16.2753 14.09 16.362 14.4067 16.5153 14.66C16.6753 14.9067 16.872 15.0933 17.1053 15.22C17.3453 15.3467 17.5986 15.41 17.8653 15.41C18.212 15.41 18.502 15.33 18.7353 15.17C18.9686 15.01 19.1386 14.7933 19.2453 14.52H20.0753C19.942 14.98 19.6853 15.3633 19.3053 15.67C18.932 15.97 18.452 16.12 17.8653 16.12ZM17.8653 11.63C17.4653 11.63 17.1086 11.7533 16.7953 12C16.4886 12.24 16.312 12.5933 16.2653 13.06H19.3853C19.3653 12.6133 19.212 12.2633 18.9253 12.01C18.6386 11.7567 18.2853 11.63 17.8653 11.63ZM20.5943 16L22.3143 13.52L20.5943 11.04H21.5043L22.8943 13.09L24.2943 11.04H25.1943L23.4743 13.52L25.1943 16H24.2943L22.8943 13.95L21.5043 16H20.5943ZM28.0348 16C27.5814 16 27.2248 15.89 26.9648 15.67C26.7048 15.45 26.5748 15.0533 26.5748 14.48V11.75H25.7148V11.04H26.5748L26.6848 9.85H27.4148V11.04H28.8748V11.75H27.4148V14.48C27.4148 14.7933 27.4781 15.0067 27.6048 15.12C27.7314 15.2267 27.9548 15.28 28.2748 15.28H28.7948V16H28.0348Z" fill="black"/>
</svg>
