<svg width="60" height="24" viewBox="0 0 60 24" fill="none" xmlns="http://www.w3.org/2000/svg">
<rect width="60" height="24" rx="6" fill="#FFE5D3"/>
<path d="M13.8292 16V9.69H11.7392V9H16.7592V9.69H14.6692V16H13.8292ZM19.0965 16.12C18.6298 16.12 18.2098 16.0133 17.8365 15.8C17.4632 15.5867 17.1665 15.2867 16.9465 14.9C16.7332 14.5067 16.6265 14.0467 16.6265 13.52C16.6265 12.9933 16.7365 12.5367 16.9565 12.15C17.1765 11.7567 17.4732 11.4533 17.8465 11.24C18.2265 11.0267 18.6498 10.92 19.1165 10.92C19.5832 10.92 20.0032 11.0267 20.3765 11.24C20.7498 11.4533 21.0432 11.7567 21.2565 12.15C21.4765 12.5367 21.5865 12.9933 21.5865 13.52C21.5865 14.0467 21.4765 14.5067 21.2565 14.9C21.0365 15.2867 20.7365 15.5867 20.3565 15.8C19.9832 16.0133 19.5632 16.12 19.0965 16.12ZM19.0965 15.4C19.3832 15.4 19.6498 15.33 19.8965 15.19C20.1432 15.05 20.3432 14.84 20.4965 14.56C20.6498 14.28 20.7265 13.9333 20.7265 13.52C20.7265 13.1067 20.6498 12.76 20.4965 12.48C20.3498 12.2 20.1532 11.99 19.9065 11.85C19.6598 11.71 19.3965 11.64 19.1165 11.64C18.8298 11.64 18.5632 11.71 18.3165 11.85C18.0698 11.99 17.8698 12.2 17.7165 12.48C17.5632 12.76 17.4865 13.1067 17.4865 13.52C17.4865 13.9333 17.5632 14.28 17.7165 14.56C17.8698 14.84 18.0665 15.05 18.3065 15.19C18.5532 15.33 18.8165 15.4 19.0965 15.4ZM22.7545 16V11.04H23.5145L23.5845 11.99C23.7378 11.6633 23.9711 11.4033 24.2845 11.21C24.5978 11.0167 24.9845 10.92 25.4445 10.92V11.8H25.2145C24.9211 11.8 24.6511 11.8533 24.4045 11.96C24.1578 12.06 23.9611 12.2333 23.8145 12.48C23.6678 12.7267 23.5945 13.0667 23.5945 13.5V16H22.7545ZM28.4617 16.12C27.9951 16.12 27.5751 16.0133 27.2017 15.8C26.8284 15.5867 26.5317 15.2867 26.3117 14.9C26.0984 14.5067 25.9917 14.0467 25.9917 13.52C25.9917 12.9933 26.1017 12.5367 26.3217 12.15C26.5417 11.7567 26.8384 11.4533 27.2117 11.24C27.5917 11.0267 28.0151 10.92 28.4817 10.92C28.9484 10.92 29.3684 11.0267 29.7417 11.24C30.1151 11.4533 30.4084 11.7567 30.6217 12.15C30.8417 12.5367 30.9517 12.9933 30.9517 13.52C30.9517 14.0467 30.8417 14.5067 30.6217 14.9C30.4017 15.2867 30.1017 15.5867 29.7217 15.8C29.3484 16.0133 28.9284 16.12 28.4617 16.12ZM28.4617 15.4C28.7484 15.4 29.0151 15.33 29.2617 15.19C29.5084 15.05 29.7084 14.84 29.8617 14.56C30.0151 14.28 30.0917 13.9333 30.0917 13.52C30.0917 13.1067 30.0151 12.76 29.8617 12.48C29.7151 12.2 29.5184 11.99 29.2717 11.85C29.0251 11.71 28.7617 11.64 28.4817 11.64C28.1951 11.64 27.9284 11.71 27.6817 11.85C27.4351 11.99 27.2351 12.2 27.0817 12.48C26.9284 12.76 26.8517 13.1067 26.8517 13.52C26.8517 13.9333 26.9284 14.28 27.0817 14.56C27.2351 14.84 27.4317 15.05 27.6717 15.19C27.9184 15.33 28.1817 15.4 28.4617 15.4ZM32.1197 16V11.04H32.8797L32.9297 11.93C33.0897 11.6167 33.3197 11.37 33.6197 11.19C33.9197 11.01 34.2597 10.92 34.6397 10.92C35.2264 10.92 35.693 11.1 36.0397 11.46C36.393 11.8133 36.5697 12.36 36.5697 13.1V16H35.7297V13.19C35.7297 12.1567 35.303 11.64 34.4497 11.64C34.023 11.64 33.6664 11.7967 33.3797 12.11C33.0997 12.4167 32.9597 12.8567 32.9597 13.43V16H32.1197ZM39.8023 16C39.349 16 38.9923 15.89 38.7323 15.67C38.4723 15.45 38.3423 15.0533 38.3423 14.48V11.75H37.4823V11.04H38.3423L38.4523 9.85H39.1823V11.04H40.6423V11.75H39.1823V14.48C39.1823 14.7933 39.2457 15.0067 39.3723 15.12C39.499 15.2267 39.7223 15.28 40.0423 15.28H40.5623V16H39.8023ZM43.8328 16.12C43.3661 16.12 42.9461 16.0133 42.5728 15.8C42.1995 15.5867 41.9028 15.2867 41.6828 14.9C41.4695 14.5067 41.3628 14.0467 41.3628 13.52C41.3628 12.9933 41.4728 12.5367 41.6928 12.15C41.9128 11.7567 42.2095 11.4533 42.5828 11.24C42.9628 11.0267 43.3861 10.92 43.8528 10.92C44.3195 10.92 44.7395 11.0267 45.1128 11.24C45.4861 11.4533 45.7795 11.7567 45.9928 12.15C46.2128 12.5367 46.3228 12.9933 46.3228 13.52C46.3228 14.0467 46.2128 14.5067 45.9928 14.9C45.7728 15.2867 45.4728 15.5867 45.0928 15.8C44.7195 16.0133 44.2995 16.12 43.8328 16.12ZM43.8328 15.4C44.1195 15.4 44.3861 15.33 44.6328 15.19C44.8795 15.05 45.0795 14.84 45.2328 14.56C45.3861 14.28 45.4628 13.9333 45.4628 13.52C45.4628 13.1067 45.3861 12.76 45.2328 12.48C45.0861 12.2 44.8895 11.99 44.6428 11.85C44.3961 11.71 44.1328 11.64 43.8528 11.64C43.5661 11.64 43.2995 11.71 43.0528 11.85C42.8061 11.99 42.6061 12.2 42.4528 12.48C42.2995 12.76 42.2228 13.1067 42.2228 13.52C42.2228 13.9333 42.2995 14.28 42.4528 14.56C42.6061 14.84 42.8028 15.05 43.0428 15.19C43.2895 15.33 43.5528 15.4 43.8328 15.4Z" fill="black"/>
</svg>
