<svg width="40" height="24" viewBox="0 0 40 24" fill="none" xmlns="http://www.w3.org/2000/svg">
<rect width="40" height="24" rx="6" fill="#DAD7FE"/>
<path d="M10.4064 16V9.69H8.31637V9H13.3364V9.69H11.2464V16H10.4064ZM15.624 16.12C15.0374 16.12 14.5707 15.9433 14.224 15.59C13.8774 15.23 13.704 14.68 13.704 13.94V11.04H14.544V13.85C14.544 14.8833 14.9674 15.4 15.814 15.4C16.2474 15.4 16.604 15.2467 16.884 14.94C17.1707 14.6267 17.314 14.1833 17.314 13.61V11.04H18.154V16H17.394L17.334 15.11C17.1807 15.4233 16.9507 15.67 16.644 15.85C16.344 16.03 16.004 16.12 15.624 16.12ZM19.5367 16V8.8H20.3767V16H19.5367ZM23.6535 16.12C23.0601 16.12 22.5668 15.97 22.1735 15.67C21.7801 15.37 21.5501 14.9633 21.4835 14.45H22.3435C22.3968 14.71 22.5335 14.9367 22.7535 15.13C22.9801 15.3167 23.2835 15.41 23.6635 15.41C24.0168 15.41 24.2768 15.3367 24.4435 15.19C24.6101 15.0367 24.6935 14.8567 24.6935 14.65C24.6935 14.35 24.5835 14.15 24.3635 14.05C24.1501 13.95 23.8468 13.86 23.4535 13.78C23.1868 13.7267 22.9201 13.65 22.6535 13.55C22.3868 13.45 22.1635 13.31 21.9835 13.13C21.8035 12.9433 21.7135 12.7 21.7135 12.4C21.7135 11.9667 21.8735 11.6133 22.1935 11.34C22.5201 11.06 22.9601 10.92 23.5135 10.92C24.0401 10.92 24.4701 11.0533 24.8035 11.32C25.1435 11.58 25.3401 11.9533 25.3935 12.44H24.5635C24.5301 12.1867 24.4201 11.99 24.2335 11.85C24.0535 11.7033 23.8101 11.63 23.5035 11.63C23.2035 11.63 22.9701 11.6933 22.8035 11.82C22.6435 11.9467 22.5635 12.1133 22.5635 12.32C22.5635 12.52 22.6668 12.6767 22.8735 12.79C23.0868 12.9033 23.3735 13 23.7335 13.08C24.0401 13.1467 24.3301 13.23 24.6035 13.33C24.8835 13.4233 25.1101 13.5667 25.2835 13.76C25.4635 13.9467 25.5535 14.22 25.5535 14.58C25.5601 15.0267 25.3901 15.3967 25.0435 15.69C24.7035 15.9767 24.2401 16.12 23.6535 16.12ZM28.4035 16.12C27.9901 16.12 27.6468 16.05 27.3735 15.91C27.1001 15.77 26.8968 15.5833 26.7635 15.35C26.6301 15.1167 26.5635 14.8633 26.5635 14.59C26.5635 14.0833 26.7568 13.6933 27.1435 13.42C27.5301 13.1467 28.0568 13.01 28.7235 13.01H30.0635V12.95C30.0635 12.5167 29.9501 12.19 29.7235 11.97C29.4968 11.7433 29.1935 11.63 28.8135 11.63C28.4868 11.63 28.2035 11.7133 27.9635 11.88C27.7301 12.04 27.5835 12.2767 27.5235 12.59H26.6635C26.6968 12.23 26.8168 11.9267 27.0235 11.68C27.2368 11.4333 27.5001 11.2467 27.8135 11.12C28.1268 10.9867 28.4601 10.92 28.8135 10.92C29.5068 10.92 30.0268 11.1067 30.3735 11.48C30.7268 11.8467 30.9035 12.3367 30.9035 12.95V16H30.1535L30.1035 15.11C29.9635 15.39 29.7568 15.63 29.4835 15.83C29.2168 16.0233 28.8568 16.12 28.4035 16.12ZM28.5335 15.41C28.8535 15.41 29.1268 15.3267 29.3535 15.16C29.5868 14.9933 29.7635 14.7767 29.8835 14.51C30.0035 14.2433 30.0635 13.9633 30.0635 13.67V13.66H28.7935C28.3001 13.66 27.9501 13.7467 27.7435 13.92C27.5435 14.0867 27.4435 14.2967 27.4435 14.55C27.4435 14.81 27.5368 15.02 27.7235 15.18C27.9168 15.3333 28.1868 15.41 28.5335 15.41Z" fill="black"/>
</svg>
