<svg width="56" height="56" viewBox="0 0 56 56" fill="none" xmlns="http://www.w3.org/2000/svg">
<rect width="56" height="56" rx="5.25" fill="#22C55E"/>
<path d="M21.875 33.2502H25.585C25.7002 33.2509 25.8143 33.2288 25.9209 33.1852C26.0275 33.1417 26.1245 33.0775 26.2062 32.9964L32.2613 26.9327L34.7462 24.5002C34.8283 24.4188 34.8934 24.3221 34.9378 24.2154C34.9822 24.1088 35.0051 23.9945 35.0051 23.8789C35.0051 23.7634 34.9822 23.6491 34.9378 23.5424C34.8934 23.4358 34.8283 23.339 34.7462 23.2577L31.0363 19.5039C30.9549 19.4219 30.8581 19.3568 30.7515 19.3124C30.6449 19.268 30.5305 19.2451 30.415 19.2451C30.2995 19.2451 30.1851 19.268 30.0785 19.3124C29.9719 19.3568 29.8751 19.4219 29.7937 19.5039L27.3263 21.9802L21.2537 28.0439C21.1727 28.1257 21.1085 28.2227 21.065 28.3293C21.0214 28.4359 20.9993 28.55 21 28.6652V32.3752C21 32.6073 21.0922 32.8298 21.2563 32.9939C21.4204 33.158 21.6429 33.2502 21.875 33.2502ZM30.415 21.3589L32.8913 23.8352L31.6488 25.0777L29.1725 22.6014L30.415 21.3589ZM22.75 29.0239L27.9388 23.8352L30.415 26.3114L25.2262 31.5002H22.75V29.0239ZM35.875 35.0002H20.125C19.8929 35.0002 19.6704 35.0924 19.5063 35.2565C19.3422 35.4206 19.25 35.6431 19.25 35.8752C19.25 36.1073 19.3422 36.3298 19.5063 36.4939C19.6704 36.658 19.8929 36.7502 20.125 36.7502H35.875C36.1071 36.7502 36.3296 36.658 36.4937 36.4939C36.6578 36.3298 36.75 36.1073 36.75 35.8752C36.75 35.6431 36.6578 35.4206 36.4937 35.2565C36.3296 35.0924 36.1071 35.0002 35.875 35.0002Z" fill="#2A3342"/>
</svg>
