<svg width="20" height="20" viewBox="0 0 20 20" fill="none" xmlns="http://www.w3.org/2000/svg">
<path d="M14.4498 4.54999C14.2521 4.54999 14.0587 4.60864 13.8943 4.71852C13.7298 4.8284 13.6016 4.98458 13.526 5.16731C13.4503 5.35003 13.4305 5.5511 13.4691 5.74508C13.5076 5.93906 13.6029 6.11724 13.7427 6.2571C13.8826 6.39695 14.0608 6.49219 14.2547 6.53078C14.4487 6.56936 14.6498 6.54956 14.8325 6.47387C15.0152 6.39818 15.1714 6.27001 15.2813 6.10556C15.3912 5.94111 15.4498 5.74777 15.4498 5.54999C15.4498 5.28477 15.3445 5.03042 15.1569 4.84288C14.9694 4.65535 14.7151 4.54999 14.4498 4.54999V4.54999ZM18.2832 6.56666C18.267 5.87524 18.1375 5.19116 17.8998 4.54166C17.6879 3.98593 17.3582 3.48272 16.9332 3.06666C16.5205 2.63951 16.0161 2.3118 15.4582 2.10832C14.8104 1.86346 14.1255 1.731 13.4332 1.71666C12.5498 1.66666 12.2665 1.66666 9.99984 1.66666C7.73317 1.66666 7.44984 1.66666 6.5665 1.71666C5.87413 1.731 5.18929 1.86346 4.5415 2.10832C3.98457 2.31386 3.48062 2.64129 3.0665 3.06666C2.63936 3.4793 2.31165 3.98369 2.10817 4.54166C1.8633 5.18944 1.73085 5.87428 1.7165 6.56666C1.6665 7.44999 1.6665 7.73332 1.6665 9.99999C1.6665 12.2667 1.6665 12.55 1.7165 13.4333C1.73085 14.1257 1.8633 14.8105 2.10817 15.4583C2.31165 16.0163 2.63936 16.5207 3.0665 16.9333C3.48062 17.3587 3.98457 17.6861 4.5415 17.8917C5.18929 18.1365 5.87413 18.269 6.5665 18.2833C7.44984 18.3333 7.73317 18.3333 9.99984 18.3333C12.2665 18.3333 12.5498 18.3333 13.4332 18.2833C14.1255 18.269 14.8104 18.1365 15.4582 17.8917C16.0161 17.6882 16.5205 17.3605 16.9332 16.9333C17.36 16.5188 17.6901 16.0152 17.8998 15.4583C18.1375 14.8088 18.267 14.1247 18.2832 13.4333C18.2832 12.55 18.3332 12.2667 18.3332 9.99999C18.3332 7.73332 18.3332 7.44999 18.2832 6.56666V6.56666ZM16.7832 13.3333C16.7771 13.8623 16.6813 14.3864 16.4998 14.8833C16.3668 15.246 16.1531 15.5737 15.8748 15.8417C15.6045 16.1171 15.2775 16.3304 14.9165 16.4667C14.4196 16.6481 13.8955 16.7439 13.3665 16.75C12.5332 16.7917 12.2248 16.8 10.0332 16.8C7.8415 16.8 7.53317 16.8 6.69984 16.75C6.15058 16.7603 5.60367 16.6757 5.08317 16.5C4.73799 16.3567 4.42597 16.144 4.1665 15.875C3.88991 15.6073 3.67887 15.2793 3.54984 14.9167C3.34638 14.4126 3.23354 13.8766 3.2165 13.3333C3.2165 12.5 3.1665 12.1917 3.1665 9.99999C3.1665 7.80832 3.1665 7.49999 3.2165 6.66666C3.22024 6.12587 3.31896 5.58994 3.50817 5.08332C3.65488 4.73158 3.88006 4.41804 4.1665 4.16666C4.41968 3.88013 4.73258 3.65257 5.08317 3.49999C5.59113 3.31669 6.1265 3.22089 6.6665 3.21666C7.49984 3.21666 7.80817 3.16666 9.99984 3.16666C12.1915 3.16666 12.4998 3.16666 13.3332 3.21666C13.8621 3.22272 14.3863 3.31853 14.8832 3.49999C15.2619 3.64053 15.6017 3.86903 15.8748 4.16666C16.1479 4.42264 16.3613 4.7356 16.4998 5.08332C16.685 5.59077 16.7809 6.12647 16.7832 6.66666C16.8248 7.49999 16.8332 7.80832 16.8332 9.99999C16.8332 12.1917 16.8248 12.5 16.7832 13.3333ZM9.99984 5.72499C9.15468 5.72664 8.32897 5.97876 7.62705 6.44951C6.92513 6.92025 6.37849 7.58849 6.0562 8.36978C5.73391 9.15108 5.65044 10.0104 5.81633 10.8391C5.98222 11.6678 6.39003 12.4288 6.98823 13.0258C7.58643 13.6228 8.34818 14.0292 9.17722 14.1934C10.0063 14.3577 10.8654 14.2726 11.6461 13.9488C12.4267 13.625 13.0939 13.077 13.5633 12.3742C14.0327 11.6713 14.2832 10.8452 14.2832 9.99999C14.2843 9.43758 14.1742 8.8805 13.9592 8.36079C13.7442 7.84108 13.4286 7.369 13.0306 6.9717C12.6325 6.5744 12.1598 6.25972 11.6397 6.04576C11.1195 5.83181 10.5622 5.72279 9.99984 5.72499V5.72499ZM9.99984 12.775C9.45099 12.775 8.91448 12.6122 8.45813 12.3073C8.00178 12.0024 7.6461 11.569 7.43607 11.0619C7.22604 10.5549 7.17108 9.99691 7.27816 9.45861C7.38523 8.92032 7.64953 8.42586 8.03762 8.03777C8.42571 7.64968 8.92016 7.38538 9.45846 7.27831C9.99676 7.17124 10.5547 7.22619 11.0618 7.43622C11.5688 7.64626 12.0022 8.00194 12.3072 8.45828C12.6121 8.91463 12.7748 9.45115 12.7748 9.99999C12.7748 10.3644 12.7031 10.7253 12.5636 11.0619C12.4241 11.3986 12.2197 11.7045 11.9621 11.9622C11.7044 12.2199 11.3985 12.4243 11.0618 12.5638C10.7251 12.7032 10.3643 12.775 9.99984 12.775V12.775Z" fill="#556987"/>
</svg>
