<svg width="20" height="20" viewBox="0 0 20 20" fill="none" xmlns="http://www.w3.org/2000/svg">
<path d="M18.3332 4.83332C17.7068 5.10507 17.0444 5.28471 16.3665 5.36666C17.0816 4.93943 17.6176 4.26731 17.8748 3.47499C17.2028 3.87504 16.4671 4.15691 15.6998 4.30832C15.187 3.75213 14.504 3.38191 13.758 3.2557C13.012 3.1295 12.2453 3.25446 11.578 3.61098C10.9107 3.96751 10.3806 4.53543 10.0709 5.22569C9.76113 5.91594 9.68925 6.68948 9.8665 7.42499C8.50769 7.35626 7.17854 7.00245 5.96538 6.38654C4.75223 5.77063 3.68221 4.9064 2.82484 3.84999C2.52412 4.37513 2.3661 4.96984 2.3665 5.57499C2.36544 6.13698 2.50335 6.69051 2.76797 7.1863C3.03258 7.68208 3.41569 8.10475 3.88317 8.41666C3.33982 8.40187 2.80808 8.25607 2.33317 7.99166V8.03332C2.33724 8.82073 2.61317 9.58257 3.11427 10.19C3.61537 10.7974 4.31088 11.213 5.08317 11.3667C4.78588 11.4571 4.47723 11.5048 4.1665 11.5083C3.95141 11.5058 3.73686 11.4863 3.52484 11.45C3.74476 12.1273 4.17036 12.7193 4.7424 13.1435C5.31444 13.5676 6.00448 13.803 6.7165 13.8167C5.51417 14.7627 4.02974 15.279 2.49984 15.2833C2.22128 15.2842 1.94295 15.2675 1.6665 15.2333C3.22853 16.2419 5.04885 16.7773 6.90817 16.775C8.19125 16.7883 9.46412 16.5458 10.6524 16.0617C11.8408 15.5776 12.9207 14.8616 13.8292 13.9554C14.7377 13.0492 15.4565 11.9712 15.9436 10.7841C16.4308 9.59701 16.6765 8.32476 16.6665 7.04166C16.6665 6.89999 16.6665 6.74999 16.6665 6.59999C17.3204 6.11233 17.8844 5.51451 18.3332 4.83332V4.83332Z" fill="#556987"/>
</svg>
